<svg width="36" height="36" viewBox="0 0 36 36" fill="none" xmlns="http://www.w3.org/2000/svg">
<g id="briefcase-variant-outline">
<path id="Vector" d="M30 10.5H24V7.5L21 4.5H15L12 7.5V10.5H6C4.35 10.5 3 11.85 3 13.5V21C3 22.125 3.6 23.07 4.5 23.595V28.5C4.5 30.165 5.835 31.5 7.5 31.5H28.5C30.165 31.5 31.5 30.165 31.5 28.5V23.58C32.385 23.055 33 22.095 33 21V13.5C33 11.85 31.65 10.5 30 10.5ZM15 7.5H21V10.5H15V7.5ZM6 13.5H30V21H22.5V16.5H13.5V21H6V13.5ZM19.5 22.5H16.5V19.5H19.5V22.5ZM28.5 28.5H7.5V24H13.5V25.5H22.5V24H28.5V28.5Z" fill="#3A9C6F"/>
</g>
</svg>
