<svg width="26" height="26" viewBox="0 0 26 26" fill="none" xmlns="http://www.w3.org/2000/svg">
<path d="M20.5837 22.75H8.66699V7.58337H20.5837M20.5837 5.41671H8.66699C8.09236 5.41671 7.54126 5.64498 7.13493 6.05131C6.7286 6.45764 6.50033 7.00874 6.50033 7.58337V22.75C6.50033 23.3247 6.7286 23.8758 7.13493 24.2821C7.54126 24.6884 8.09236 24.9167 8.66699 24.9167H20.5837C21.1583 24.9167 21.7094 24.6884 22.1157 24.2821C22.5221 23.8758 22.7503 23.3247 22.7503 22.75V7.58337C22.7503 7.00874 22.5221 6.45764 22.1157 6.05131C21.7094 5.64498 21.1583 5.41671 20.5837 5.41671ZM17.3337 1.08337H4.33366C3.75902 1.08337 3.20792 1.31165 2.80159 1.71798C2.39527 2.1243 2.16699 2.6754 2.16699 3.25004V18.4167H4.33366V3.25004H17.3337V1.08337Z" fill="#3A9C6F"/>
</svg>
