<svg width="100" height="100" viewBox="0 0 100 100" fill="#3A9C6F" xmlns="http://www.w3.org/2000/svg">
<path d="M25.0007 45.8334L25.0007 54.1667L58.334 54.1667L43.7507 68.75L49.6673 74.6667L74.334 50L49.6673 25.3334L43.7506 31.25L58.334 45.8334L25.0007 45.8334ZM91.6673 50C91.6673 44.5283 90.5896 39.1101 88.4956 34.0549C86.4017 28.9997 83.3325 24.4064 79.4634 20.5373C71.6494 12.7232 61.0513 8.33337 50.0006 8.33337C38.95 8.33337 28.3519 12.7232 20.5379 20.5373C12.7239 28.3513 8.33399 38.9494 8.33399 50C8.33399 55.4718 9.41173 60.89 11.5057 65.9452C13.5996 71.0004 16.6688 75.5937 20.5379 79.4628C24.407 83.3319 29.0003 86.4011 34.0555 88.495C39.1107 90.589 44.5289 91.6667 50.0007 91.6667C61.0513 91.6667 71.6494 87.2768 79.4634 79.4628C87.2774 71.6488 91.6673 61.0507 91.6673 50ZM83.334 50C83.334 58.8406 79.8221 67.3191 73.5709 73.5703C67.3197 79.8215 58.8412 83.3334 50.0007 83.3334C41.1601 83.3334 32.6816 79.8215 26.4304 73.5703C20.1792 67.3191 16.6673 58.8406 16.6673 50C16.6673 41.1595 20.1792 32.681 26.4304 26.4298C32.6816 20.1786 41.1601 16.6667 50.0006 16.6667C58.8412 16.6667 67.3197 20.1786 73.5709 26.4298C79.8221 32.681 83.334 41.1595 83.334 50Z" fill="#3A9C6F"/>
</svg>
