<svg width="100" height="100" viewBox="0 0 100 100" fill="none" xmlns="http://www.w3.org/2000/svg">
<path d="M74.9993 45.8334L74.9993 54.1667L41.666 54.1667L56.2493 68.75L50.3327 74.6667L25.666 50L50.3327 25.3334L56.2493 31.25L41.666 45.8334L74.9993 45.8334ZM8.33268 50C8.33268 44.5283 9.41042 39.1101 11.5044 34.0549C13.5983 28.9997 16.6675 24.4064 20.5366 20.5373C28.3506 12.7232 38.9487 8.33337 49.9994 8.33337C61.05 8.33337 71.6481 12.7232 79.4621 20.5373C87.2761 28.3513 91.666 38.9494 91.666 50C91.666 55.4718 90.5883 60.89 88.4943 65.9452C86.4004 71.0004 83.3312 75.5937 79.4621 79.4628C75.593 83.3319 70.9997 86.4011 65.9445 88.495C60.8893 90.589 55.4711 91.6667 49.9993 91.6667C38.9487 91.6667 28.3506 87.2768 20.5366 79.4628C12.7226 71.6488 8.33268 61.0507 8.33268 50ZM16.666 50C16.666 58.8406 20.1779 67.3191 26.4291 73.5703C32.6803 79.8215 41.1588 83.3334 49.9993 83.3334C58.8399 83.3334 67.3184 79.8215 73.5696 73.5703C79.8208 67.3191 83.3327 58.8406 83.3327 50C83.3327 41.1595 79.8208 32.681 73.5696 26.4298C67.3184 20.1786 58.8399 16.6667 49.9994 16.6667C41.1588 16.6667 32.6803 20.1786 26.4291 26.4298C20.1779 32.681 16.666 41.1595 16.666 50Z" fill="white"/>
</svg>
