<svg width="123" height="123" viewBox="0 0 123 123" fill="none" xmlns="http://www.w3.org/2000/svg">
<g id="checkbox-marked-circle-outline">
<path id="Vector" d="M102.5 61.5C102.5 72.3739 98.1804 82.8024 90.4914 90.4914C82.8024 98.1804 72.3739 102.5 61.5 102.5C50.6261 102.5 40.1976 98.1804 32.5086 90.4914C24.8196 82.8024 20.5 72.3739 20.5 61.5C20.5 50.6261 24.8196 40.1976 32.5086 32.5086C40.1976 24.8196 50.6261 20.5 61.5 20.5C65.395 20.5 69.1875 21.0637 72.775 22.0887L80.8213 14.0425C74.8763 11.5825 68.3675 10.25 61.5 10.25C54.7698 10.25 48.1054 11.5756 41.8875 14.1512C35.6695 16.7267 30.0198 20.5018 25.2608 25.2608C15.6495 34.872 10.25 47.9077 10.25 61.5C10.25 75.0923 15.6495 88.128 25.2608 97.7392C30.0198 102.498 35.6695 106.273 41.8875 108.849C48.1054 111.424 54.7698 112.75 61.5 112.75C75.0923 112.75 88.128 107.35 97.7392 97.7392C107.35 88.128 112.75 75.0923 112.75 61.5M40.5387 51.66L33.3125 58.9375L56.375 82L107.625 30.75L100.399 23.4725L56.375 67.4963L40.5387 51.66Z" fill="#3A9C6F"/>
</g>
</svg>
