<svg width="154" height="75" viewBox="0 0 154 75" fill="none" xmlns="http://www.w3.org/2000/svg">
<g clip-path="url(#clip0_199_6206)">
<path d="M154 74.9347H153.026C153.026 74.5554 153.026 74.2223 153.026 73.8892C153.026 73.5561 153.026 73.2189 153.026 72.8586C152.91 72.8477 152.817 72.8328 152.725 72.8328C152.164 72.8301 151.604 72.8396 151.042 72.826C150.849 72.8219 150.728 72.8804 150.62 73.0462C150.26 73.5996 149.878 74.1407 149.515 74.6927C149.41 74.8532 149.292 74.9348 149.094 74.9212C148.859 74.9048 148.622 74.9171 148.349 74.9171C148.471 74.6166 148.665 74.4018 148.823 74.1639C148.99 73.911 149.167 73.6649 149.34 73.4147C149.506 73.1741 149.671 72.9334 149.85 72.6737C149.777 72.6302 149.719 72.5867 149.654 72.5581C148.846 72.2033 148.422 71.5629 148.322 70.7009C148.29 70.4235 148.294 70.1326 148.337 69.8566C148.51 68.739 149.309 67.9871 150.478 67.8294C150.766 67.79 151.059 67.775 151.349 67.7723C152.233 67.7614 153.116 67.7614 154 67.7587V74.9347ZM153.012 68.6805C152.936 68.6696 152.884 68.6561 152.833 68.6561C152.219 68.6561 151.604 68.6533 150.99 68.6669C150.798 68.671 150.603 68.705 150.416 68.7526C149.789 68.9171 149.381 69.4079 149.33 70.0578C149.315 70.2522 149.317 70.4494 149.336 70.6424C149.399 71.2774 149.786 71.7206 150.403 71.8824C150.507 71.9096 150.613 71.9422 150.719 71.945C151.451 71.9599 152.183 71.9681 152.915 71.9762C152.944 71.9762 152.972 71.9504 153.011 71.9314V68.6792L153.012 68.6805Z" fill="black"/>
<path d="M82.9133 75C82.7271 74.9565 82.5409 74.9116 82.3533 74.8681C81.7812 74.7349 81.2495 74.5119 80.7422 74.1353C80.8542 73.896 80.9621 73.6662 81.0795 73.4147C81.1861 73.4799 81.2657 73.5289 81.3467 73.5778C82.19 74.0877 83.0941 74.2468 84.0521 74.0292C84.2991 73.9735 84.5393 73.8552 84.7632 73.7301C85.048 73.5697 85.2234 73.31 85.2881 72.981C85.3759 72.5391 85.2058 72.1027 84.8064 71.9014C84.5622 71.7777 84.2815 71.6907 84.009 71.6662C83.5057 71.6227 82.997 71.6363 82.4896 71.6281C82.3628 71.6254 82.2359 71.6281 82.0888 71.6281V70.8219C82.2332 70.8219 82.3695 70.8246 82.5058 70.8219C83.001 70.8083 83.4962 70.7974 83.9914 70.7743C84.1075 70.7689 84.2262 70.7322 84.3342 70.6887C84.6985 70.5432 84.9508 70.2984 84.9967 69.8824C85.0439 69.4528 84.8914 69.1156 84.5366 68.8749C84.2235 68.6642 83.8727 68.5663 83.5016 68.5405C82.8188 68.4915 82.1725 68.6329 81.5599 68.9388C81.4749 68.981 81.3899 69.0231 81.2765 69.0789C81.1699 68.8097 81.0728 68.5622 80.9675 68.2957C81.0363 68.2481 81.0917 68.1992 81.1564 68.1679C82.2278 67.6486 83.3383 67.5112 84.4893 67.843C84.8779 67.9545 85.2274 68.1462 85.5175 68.4358C86.3029 69.2216 86.1585 70.4521 85.2112 71.0286C85.1303 71.0775 85.0507 71.1265 84.9454 71.1904C85.0992 71.2597 85.2288 71.3114 85.3529 71.3739C86.4297 71.9232 86.6469 73.2814 85.7982 74.1434C85.3462 74.603 84.7754 74.8124 84.1601 74.9307C84.067 74.9483 83.9752 74.9769 83.8835 75.0013H82.9119L82.9133 75Z" fill="black"/>
<path d="M142.347 75C142.266 74.9755 142.187 74.9415 142.105 74.9266C139.638 74.467 138.533 72.0496 139.396 69.8783C139.744 69.0027 140.386 68.376 141.254 68.0238C142.505 67.5167 143.736 67.5561 144.916 68.2617C145.036 68.3338 145.145 68.4249 145.253 68.5133C145.345 68.5881 145.429 68.6724 145.55 68.7838C145.33 69.0027 145.129 69.204 144.904 69.4297C144.201 68.724 143.357 68.4861 142.407 68.6302C141.708 68.7363 141.121 69.0612 140.68 69.6227C139.841 70.69 139.939 72.3365 140.883 73.2978C141.714 74.1448 143.538 74.5731 144.917 73.2529C145.109 73.4636 145.303 73.6757 145.511 73.9041C145.084 74.3936 144.535 74.6914 143.909 74.86C143.714 74.913 143.514 74.9538 143.317 75.0014H142.345L142.347 75Z" fill="black"/>
<path d="M36.1465 26.2742V25.9003C36.2409 25.8921 36.3232 25.8772 36.4069 25.8772C40.9394 25.8772 45.4705 25.8595 50.003 25.8921C52.2415 25.9084 54.4234 26.3068 56.5014 27.1851C58.2515 27.9247 59.7817 28.9716 60.9624 30.4917C62.1147 31.9737 62.726 33.665 62.8434 35.5399C62.9527 37.3033 62.6477 38.9825 61.8192 40.5515C60.9543 42.1884 59.6886 43.4379 58.1207 44.3856C56.5055 45.3618 54.7473 45.9233 52.8865 46.1626C52.3104 46.2374 51.7274 46.27 51.1432 46.323C51.0636 46.5718 51.0716 46.5909 51.3172 46.6221C52.6612 46.7921 53.881 47.2802 54.9875 48.062C55.7107 48.5732 56.3139 49.2013 56.8172 49.9342C57.871 51.4732 58.9276 53.0096 59.9976 54.5378C60.4577 55.1945 60.9448 55.8322 61.4387 56.4644C61.8206 56.9525 62.2686 57.3794 62.7786 57.7343C63.8365 58.4698 64.8269 58.4508 65.8524 57.6663C66.1952 57.4039 66.5298 57.1306 66.8847 56.8478C66.9751 56.9484 67.052 57.0341 67.1303 57.1211C67.1073 57.1632 67.1006 57.1986 67.079 57.2162C66.2437 57.9056 65.3977 58.5799 64.4329 59.0816C63.707 59.4596 62.9486 59.7302 62.1282 59.7886C61.011 59.8689 60.0273 59.5058 59.1367 58.8478C58.3096 58.2373 57.6241 57.4841 57.0277 56.6534C55.5474 54.5936 54.0928 52.5133 52.6126 50.4522C52.0823 49.7125 51.5331 48.9851 50.9502 48.2863C50.6345 47.907 50.2512 47.5752 49.8626 47.2693C49.2041 46.7527 48.4296 46.5297 47.6025 46.4943C47.3245 46.4821 47.0452 46.493 46.7429 46.493V45.7234C46.8509 45.7194 46.9656 45.7112 47.0803 45.7098C47.8467 45.7071 48.6131 45.7194 49.3782 45.7017C50.5683 45.6745 51.7436 45.5263 52.8838 45.1606C55.6365 44.2741 57.361 42.4033 58.122 39.6093C58.543 38.0593 58.6037 36.4767 58.4904 34.886C58.4108 33.7643 58.1868 32.6698 57.7604 31.6242C56.8658 29.4244 55.2681 27.99 53.043 27.2422C51.9285 26.8683 50.7788 26.6834 49.609 26.6671C47.732 26.6413 45.8537 26.6562 43.9768 26.6549C43.916 26.6549 43.8553 26.6657 43.796 26.6712C43.796 26.712 43.7879 26.7405 43.796 26.75C44.3667 27.3551 44.5394 28.1056 44.5691 28.9064C44.5772 29.1239 44.5745 29.3415 44.5745 29.559C44.5745 38.3992 44.5745 47.2394 44.5772 56.0796C44.5772 56.546 44.6015 57.0137 44.6366 57.4787C44.7176 58.5663 45.3086 58.7485 46.0008 58.8206C46.4717 58.8695 46.948 58.8804 47.4217 58.8859C48.2529 58.8954 49.0827 58.8886 49.9139 58.8886C50.03 58.8886 50.1446 58.8886 50.2755 58.8886V59.2638H36.1951C36.1829 59.2176 36.1681 59.1782 36.164 59.1374C36.1586 59.0857 36.164 59.0327 36.164 58.9348C36.3044 58.9348 36.4312 58.9362 36.5567 58.9348C37.3663 58.9212 38.1746 58.9131 38.9842 58.8899C39.1974 58.8845 39.4133 58.8464 39.6238 58.7988C40.1298 58.6833 40.4482 58.3583 40.5103 57.8417C40.5737 57.3141 40.6128 56.7812 40.6142 56.2496C40.625 53.8689 40.6182 51.4868 40.6196 49.1062C40.6196 42.4413 40.6196 35.7751 40.6182 29.1103C40.6182 28.6644 40.6047 28.2184 40.571 27.7738C40.4954 26.7772 40.1149 26.3884 39.1272 26.3394C38.2771 26.2973 37.4243 26.2973 36.5715 26.2796C36.4433 26.2769 36.3138 26.2796 36.1465 26.2796V26.2742Z" fill="black"/>
<path d="M35.0419 43.7683C35.0473 43.8608 35.0554 43.9342 35.0568 44.0076C35.0581 44.1803 35.0568 44.353 35.0568 44.5732C34.3254 44.5786 33.617 44.5746 32.9086 44.5759C32.2083 44.5759 31.5093 44.5759 30.7726 44.5759C30.7672 44.7391 30.7591 44.8764 30.7591 45.0137C30.7483 47.1877 30.7335 49.3631 30.7362 51.5372C30.7362 51.8635 30.6444 52.1028 30.4191 52.342C29.3058 53.5263 28.2169 54.7322 27.1091 55.9219C25.8583 57.2652 24.3389 58.1938 22.6293 58.8165C20.6714 59.529 18.6487 59.7451 16.5788 59.6255C15.359 59.5548 14.1513 59.412 12.9585 59.1455C10.7995 58.6629 8.78088 57.8444 6.94307 56.5922C4.78141 55.1184 3.10147 53.2108 1.90864 50.8709C0.880437 48.8533 0.311012 46.7051 0.100513 44.4522C-0.130226 41.994 0.0235999 39.563 0.694227 37.1837C1.90055 32.9009 4.41978 29.665 8.3356 27.5658C10.1923 26.5706 12.1799 25.9819 14.2579 25.68C15.7368 25.4652 17.2238 25.3999 18.7121 25.4938C21.1423 25.6447 23.5023 26.1178 25.7085 27.1987C26.2685 27.4734 26.8001 27.8133 27.3183 28.164C27.777 28.4754 28.0348 28.9227 28.0564 29.506C28.1171 31.2232 28.194 32.939 28.2655 34.6548C28.306 35.6106 28.3492 36.5664 28.3883 37.5223C28.3937 37.6405 28.3883 37.7588 28.3883 37.9125H27.5557C27.5436 37.8241 27.5207 37.7194 27.5139 37.6147C27.4653 36.8329 27.4114 36.0525 27.3749 35.2707C27.2171 31.8608 25.6019 29.3659 22.6778 27.7086C21.199 26.8697 19.5919 26.4346 17.9011 26.3163C16.0309 26.1858 14.1958 26.3693 12.4093 26.9567C9.78345 27.8201 7.82824 29.5005 6.49238 31.9247C5.64634 33.4611 5.13764 35.1171 4.82999 36.8384C4.34422 39.5549 4.33073 42.2891 4.5844 45.0273C4.75442 46.8723 5.1066 48.682 5.7327 50.4304C6.37364 52.2183 7.27366 53.8512 8.58658 55.2339C9.97101 56.6901 11.6402 57.6677 13.5522 58.2305C15.1174 58.6928 16.7245 58.9063 18.3491 58.807C21.6011 58.6099 24.3821 57.3658 26.5856 54.9008C26.7178 54.7526 26.7691 54.6017 26.7677 54.4032C26.7596 52.6316 26.7596 50.8587 26.7569 49.0858C26.7569 48.2129 26.6139 47.3754 26.1497 46.6194C25.5101 45.578 24.5588 44.9961 23.3984 44.7201C22.8802 44.5963 22.3526 44.5732 21.8237 44.5732C20.0655 44.5732 18.3059 44.5732 16.5477 44.5732H16.147V43.7656H35.0419V43.7683Z" fill="black"/>
<path d="M83.8621 49.6826H83.4506C83.4465 49.5589 83.4384 49.4433 83.4384 49.3278C83.4357 48.5011 83.4398 47.6758 83.433 46.8492C83.4276 46.2605 83.3494 45.6799 83.1982 45.1089C82.8015 43.6024 81.8233 42.7065 80.3322 42.3842C79.7979 42.2687 79.246 42.2061 78.6982 42.183C77.8467 42.1463 76.9939 42.1653 76.1411 42.1613C76.0777 42.1613 76.0143 42.1694 75.909 42.1776C75.905 42.319 75.8996 42.4549 75.8996 42.5922C75.8996 46.9199 75.8888 51.2462 75.9063 55.5738C75.9104 56.6398 75.6351 57.5657 74.8741 58.323C74.8525 58.3447 74.8444 58.3774 74.8134 58.4331C74.9105 58.444 74.9901 58.4617 75.0711 58.4617C78.5996 58.4562 82.1269 58.4617 85.6554 58.4358C86.8698 58.4277 88.0586 58.2224 89.1853 57.7288C90.4564 57.1727 91.3429 56.2441 91.8719 54.9593C92.2483 54.0456 92.4116 53.0844 92.498 52.1068C92.5938 51.0246 92.6828 49.941 92.7773 48.8587C92.7881 48.7404 92.8097 48.6221 92.8299 48.4794H93.5774C93.5774 48.5868 93.5815 48.682 93.5774 48.7758C93.4371 51.4134 93.2968 54.0511 93.1551 56.6887C93.1349 57.0572 93.1106 57.427 93.1025 57.7954C93.0984 57.994 93.0202 58.1489 92.8974 58.2931C92.5479 58.701 92.1039 58.9674 91.6006 59.117C91.2943 59.2081 90.9664 59.2733 90.6493 59.2733C83.0323 59.2815 75.4152 59.2801 67.7981 59.2801C67.7131 59.2801 67.6294 59.272 67.5255 59.2666V58.8981C67.6456 58.8927 67.7509 58.8845 67.8561 58.8831C68.5146 58.8791 69.1731 58.8886 69.8302 58.8695C70.1851 58.86 70.5427 58.8288 70.8895 58.7621C71.5331 58.6398 71.8475 58.2917 71.9082 57.635C71.9541 57.1388 71.9784 56.6371 71.9797 56.1394C71.9838 47.0831 71.9824 38.0267 71.9824 28.9703C71.9824 28.6766 71.9919 28.3816 71.9689 28.0906C71.9447 27.7779 71.9096 27.4625 71.8408 27.1579C71.753 26.7677 71.4953 26.4931 71.1094 26.4061C70.7329 26.3218 70.3443 26.2714 69.9598 26.2565C69.2702 26.2293 68.5794 26.2415 67.8885 26.2375C67.7725 26.2375 67.6551 26.2375 67.5215 26.2375V25.8228H67.8521C74.4437 25.8228 81.0366 25.8201 87.6282 25.8255C88.4701 25.8255 89.3094 25.8962 90.1352 26.0716C90.7775 26.2075 90.7829 26.2157 90.791 26.8751C90.8288 30.0281 90.8652 33.181 90.9003 36.3326C90.9003 36.4278 90.8895 36.5216 90.8828 36.6358H90.0084C89.9976 36.5365 89.9841 36.4427 89.9787 36.3489C89.9113 35.2422 89.8559 34.1355 89.7736 33.0301C89.7143 32.2157 89.5631 31.4162 89.2933 30.6412C88.6928 28.9132 87.5283 27.7629 85.8092 27.1824C85.0185 26.9145 84.2022 26.7555 83.3696 26.7188C82.3792 26.6753 81.3861 26.6603 80.3943 26.6549C78.6577 26.6453 76.9197 26.6521 75.1831 26.6521C75.0684 26.6521 74.9551 26.6521 74.7837 26.6521C74.8552 26.7555 74.8835 26.8099 74.924 26.852C75.6 27.5508 75.9023 28.3884 75.8996 29.3619C75.8929 33.2 75.8969 37.0369 75.8969 40.8751V41.3006C75.9792 41.3156 76.0305 41.3332 76.0818 41.3319C77.1707 41.3142 78.261 41.3101 79.3485 41.2666C79.9746 41.2408 80.5859 41.0967 81.1688 40.8492C82.027 40.4849 82.6329 39.8717 82.9945 39.0083C83.3008 38.2755 83.4101 37.5032 83.4303 36.7174C83.4452 36.1844 83.4344 35.6514 83.4371 35.1198C83.4371 35.0138 83.4465 34.9077 83.4519 34.7826H83.8621V49.6826Z" fill="black"/>
<path d="M121.014 48.4726H121.733C121.733 48.7459 121.744 49.0028 121.732 49.2598C121.654 50.8234 121.57 52.3855 121.488 53.9491C121.42 55.2407 121.351 56.5324 121.291 57.824C121.281 58.013 121.196 58.1558 121.084 58.289C120.722 58.7159 120.253 58.9715 119.732 59.1442C119.347 59.2706 118.951 59.2869 118.549 59.2869C114.891 59.2842 111.234 59.2869 107.576 59.2856C103.767 59.2856 99.9587 59.2856 96.1494 59.2856C96.0105 59.2856 95.8701 59.2856 95.7055 59.2856V58.8886C95.8202 58.8886 95.9349 58.8886 96.0509 58.8886C96.7094 58.8859 97.3679 58.8954 98.025 58.8763C98.3894 58.8655 98.7591 58.8328 99.1167 58.7621C99.7023 58.6466 100.005 58.3216 100.075 57.7261C100.131 57.253 100.158 56.773 100.158 56.2958C100.162 47.1415 100.162 37.9872 100.158 28.8316C100.158 28.3653 100.134 27.8962 100.079 27.4339C100 26.7677 99.6605 26.4156 98.9939 26.3367C98.4487 26.2728 97.8968 26.2633 97.3477 26.2456C96.9051 26.232 96.4625 26.2443 96.0213 26.2415C95.916 26.2415 95.8108 26.232 95.6934 26.2266V25.8364C95.8229 25.8323 95.947 25.8255 96.0712 25.8255C97.9265 25.8255 99.7832 25.8255 101.639 25.8255C106.332 25.8255 111.026 25.8228 115.719 25.8282C116.593 25.8282 117.465 25.8962 118.323 26.0757C118.951 26.2075 118.96 26.2239 118.967 26.852C119.006 29.9723 119.047 33.0926 119.087 36.2116C119.088 36.3407 119.087 36.4699 119.087 36.6154C118.787 36.6983 118.504 36.6616 118.198 36.6426C118.182 36.5257 118.159 36.4223 118.153 36.3163C118.102 35.4162 118.06 34.5148 118.004 33.6134C117.943 32.6236 117.813 31.646 117.495 30.7011C116.901 28.9431 115.733 27.7711 113.988 27.1824C113.196 26.9145 112.379 26.7568 111.548 26.7201C110.569 26.6753 109.586 26.6603 108.605 26.6549C106.858 26.6453 105.109 26.6521 103.362 26.6521H102.956C103.047 26.7691 103.093 26.8357 103.147 26.8955C103.769 27.5712 104.08 28.3625 104.078 29.2911C104.071 33.1511 104.076 37.011 104.076 40.8696C104.076 41.0083 104.076 41.1483 104.076 41.3006C104.165 41.3142 104.225 41.3332 104.286 41.3332C105.364 41.3156 106.444 41.3101 107.52 41.268C108.114 41.2449 108.694 41.1103 109.252 40.8914C110.261 40.4944 110.925 39.7697 111.278 38.7459C111.467 38.198 111.573 37.631 111.593 37.0545C111.614 36.425 111.608 35.7942 111.613 35.1633C111.613 35.0464 111.613 34.9295 111.613 34.7881H112.012C112.076 35.026 112.097 49.1701 112.034 49.669H111.632C111.626 49.5576 111.617 49.442 111.617 49.3278C111.613 48.4794 111.636 47.631 111.601 46.7839C111.578 46.2442 111.514 45.6976 111.392 45.1728C111.027 43.6337 110.037 42.7065 108.514 42.3856C107.927 42.2619 107.319 42.2048 106.719 42.1776C105.921 42.1409 105.123 42.164 104.324 42.1626C104.259 42.1626 104.196 42.1721 104.089 42.1803C104.085 42.3067 104.078 42.4318 104.078 42.5583C104.078 45.6786 104.078 48.7989 104.078 51.9192C104.078 53.1918 104.062 54.463 104.084 55.7356C104.1 56.7377 103.777 57.5874 103.081 58.2971C103.051 58.3271 103.03 58.3638 102.965 58.4481C103.12 58.4562 103.229 58.4671 103.34 58.4671C105.066 58.4671 106.793 58.4712 108.519 58.4671C110.288 58.463 112.058 58.4671 113.827 58.4385C115.042 58.4195 116.23 58.2264 117.359 57.7356C118.654 57.1727 119.55 56.2237 120.076 54.9117C120.415 54.0674 120.582 53.185 120.663 52.2836C120.774 51.0708 120.878 49.8594 120.986 48.6466C120.99 48.5949 121.003 48.5433 121.015 48.4726H121.014Z" fill="black"/>
<path d="M123.597 26.2375V25.8228C123.725 25.8228 123.84 25.8228 123.956 25.8228C126.308 25.8228 128.66 25.8282 131.013 25.816C131.268 25.816 131.394 25.9057 131.518 26.1151C136.053 33.7534 140.593 41.389 145.133 49.0246C145.243 49.2108 145.361 49.3944 145.466 49.5834C145.717 50.0389 145.961 50.4957 146.228 50.9879H146.467C146.475 50.943 146.491 50.9022 146.491 50.8601C146.479 43.7167 146.464 36.5746 146.451 29.4312C146.451 28.9091 146.448 28.3897 146.316 27.8772C146.124 27.1402 145.678 26.6508 144.952 26.4496C144.601 26.353 144.234 26.2782 143.872 26.2633C143.032 26.2293 142.19 26.2388 141.348 26.2307C141.22 26.2307 141.091 26.2307 140.942 26.2307V25.8391H151.322C151.328 25.9506 151.333 26.0634 151.341 26.2116C151.194 26.2184 151.07 26.2225 150.944 26.2293C150.395 26.2592 149.847 26.2878 149.298 26.319C149.224 26.3231 149.15 26.3435 149.075 26.3612C147.989 26.61 147.444 27.2177 147.329 28.3381C147.289 28.7378 147.273 29.1402 147.273 29.5413C147.27 39.5984 147.27 49.6554 147.27 59.7125C147.27 59.8525 147.27 59.9912 147.27 60.153C147.151 60.1598 147.06 60.1653 146.98 60.1693C146.95 60.1381 146.926 60.1245 146.922 60.1068C146.822 59.5969 146.582 59.1469 146.321 58.7091C144.988 56.4739 143.654 54.2387 142.314 52.0062C137.908 44.6697 133.499 37.3346 129.093 29.9982C128.981 29.8119 128.868 29.6256 128.784 29.4258C128.712 29.2544 128.619 29.2191 128.447 29.2925C128.463 29.5304 128.487 29.7657 128.492 30.0009C128.505 30.5121 128.514 31.0233 128.514 31.5332C128.514 39.699 128.514 47.8635 128.517 56.0293C128.517 56.5174 128.523 57.0096 128.575 57.495C128.669 58.4032 129.048 58.7635 129.954 58.8152C130.685 58.8559 131.419 58.86 132.152 58.8791C132.279 58.8818 132.407 58.8791 132.555 58.8791V59.2598H123.601C123.594 59.1442 123.588 59.0409 123.578 58.8954C123.708 58.8886 123.821 58.8804 123.934 58.8777C124.656 58.8587 125.378 58.8437 126.101 58.8206C126.24 58.8165 126.381 58.792 126.517 58.7635C127.186 58.6235 127.505 58.2822 127.578 57.5915C127.622 57.1714 127.649 56.7458 127.649 56.323C127.653 47.147 127.653 37.9696 127.649 28.7935C127.649 28.3816 127.622 27.9682 127.583 27.5576C127.511 26.8003 127.155 26.3979 126.404 26.3245C125.675 26.2538 124.94 26.2579 124.207 26.2334C124.015 26.2266 123.822 26.2334 123.597 26.2334V26.2375Z" fill="black"/>
<path d="M9.22829 74.9171C8.95437 74.9171 8.72903 74.9184 8.50504 74.9171C8.43217 74.9171 8.35931 74.9035 8.25676 74.8926V71.8022C8.14746 71.7872 8.0665 71.7668 7.98419 71.7655C7.70352 71.7614 7.42286 71.775 7.14219 71.76C6.94519 71.7492 6.82914 71.8267 6.72659 71.9925C6.17201 72.8858 5.59989 73.7696 5.04935 74.6655C4.93196 74.8559 4.80512 74.9388 4.58383 74.9225C4.31935 74.9035 4.05218 74.9184 3.71484 74.9184C4.51636 73.6445 5.28144 72.429 6.05327 71.2012C5.34081 70.0728 4.63645 68.9565 3.90645 67.7995H4.96299C5.00887 67.8702 5.07634 67.9667 5.13841 68.0673C5.66466 68.928 6.19225 69.7872 6.7104 70.6533C6.81025 70.8192 6.9209 70.8994 7.1206 70.8899C7.47548 70.8736 7.83171 70.8858 8.21898 70.8858C8.277 70.5391 8.24191 70.2046 8.24866 69.8729C8.25541 69.5248 8.25001 69.1768 8.25001 68.8287V67.7954H9.22019V70.8695C9.46982 70.8749 9.69247 70.8858 9.91376 70.8831C10.1378 70.8804 10.3982 70.9307 10.5763 70.8342C10.7436 70.7444 10.8286 70.4956 10.942 70.3107C11.4142 69.5439 11.8906 68.7798 12.3507 68.0061C12.46 67.8226 12.5801 67.7478 12.7906 67.7641C13.024 67.7832 13.2615 67.7682 13.5503 67.7682C13.4774 67.8987 13.4315 67.9912 13.3762 68.0796C12.7717 69.0449 12.1712 70.0116 11.5546 70.9701C11.4372 71.1537 11.4331 71.2774 11.5532 71.4637C12.2185 72.4929 12.8688 73.5316 13.5233 74.5676C13.584 74.6642 13.6393 74.7648 13.727 74.9144C13.3411 74.9144 13.0092 74.9307 12.6813 74.9035C12.5922 74.8967 12.4924 74.777 12.433 74.6859C11.9 73.8552 11.3805 73.0163 10.8475 72.1856C10.5277 71.6866 10.6923 71.7709 10.0878 71.7628C9.80986 71.7587 9.53189 71.7628 9.22964 71.7628V74.9171H9.22829Z" fill="black"/>
<path d="M68.0829 11.5461C68.2694 11.4478 68.4633 11.3614 68.6394 11.2481C71.0118 9.71628 73.2806 8.0399 75.5094 6.3054C77.6628 4.62902 79.8191 2.95711 81.8807 1.16748C81.9325 1.12277 81.9932 1.08701 82.0805 1.0274C90.3137 7.51836 98.5438 14.0063 106.774 20.4943C106.764 20.5122 106.755 20.5301 106.744 20.548C106.426 20.4064 106.105 20.2693 105.79 20.1233C98.7037 16.8614 92.1577 12.7323 86.1475 7.7389C85.6192 7.29931 85.0686 6.88506 84.5047 6.49465C84.0252 6.16235 83.4865 5.94181 82.9108 5.8241C82.0791 5.65273 81.3021 5.81962 80.5946 6.25623C80.0115 6.61684 79.4491 7.01619 78.9016 7.43193C77.3535 8.60913 75.8336 9.82506 74.2722 10.9829C72.7848 12.0871 71.1909 13.0258 69.5599 13.899C65.8733 15.8749 61.9957 17.3874 58.0087 18.6123C55.8509 19.2754 53.6664 19.8536 51.4938 20.4705C51.4731 20.4764 51.4479 20.4705 51.334 20.4705C51.4997 20.39 51.593 20.3423 51.6877 20.2976C55.1819 18.6838 58.6392 16.997 62.0224 15.1597C63.97 14.1017 65.8881 12.996 67.7588 11.8069C67.8772 11.7309 67.9778 11.6296 68.0873 11.5402L68.0785 11.5476L68.0829 11.5461Z" fill="#3A9C6F"/>
<path d="M67.7599 11.2762C67.545 11.3552 67.3918 11.2312 67.234 11.1386C65.9928 10.4123 64.7592 9.67656 63.512 8.9585C62.6299 8.45026 61.7239 7.97882 60.8448 7.4665C60.3054 7.15175 59.7434 7.0918 59.1604 7.27983C58.6991 7.42835 58.2363 7.59594 57.817 7.82077C55.5045 9.05796 53.0537 9.98177 50.4362 10.5213C49.4429 10.7257 48.4302 10.8511 47.4264 11.0119C47.3678 11.0214 47.3077 11.0187 47.2266 10.9751C47.3257 10.9356 47.4234 10.8947 47.5226 10.8552C48.9606 10.2802 50.4061 9.72016 51.8351 9.12473C53.6833 8.35625 55.4053 7.3793 57.1273 6.40644C57.6563 6.10668 58.1927 5.81782 58.7306 5.53032C58.8959 5.44175 59.0717 5.3709 59.249 5.30277C60.0244 5.00573 60.7306 5.10248 61.3422 5.6366C61.9387 6.15845 62.5172 6.69666 63.1183 7.21443C64.6765 8.55791 66.2813 9.85642 67.7509 11.2816L67.7599 11.2735V11.2762Z" fill="#3A9C6F"/>
<path d="M90.056 74.8926V67.8022C90.141 67.7913 90.2234 67.7723 90.3043 67.7723C91.2745 67.7723 92.246 67.7668 93.2162 67.775C93.6386 67.7791 94.0542 67.8403 94.4495 68.0021C95.0783 68.259 95.4845 68.6955 95.5411 69.4052C95.6032 70.1584 95.3428 70.7458 94.66 71.1088C94.6317 71.1237 94.6033 71.1387 94.575 71.1564C94.5669 71.1618 94.5615 71.1727 94.5345 71.2039C94.5993 71.2366 94.6573 71.2719 94.7194 71.295C95.5061 71.5887 95.8947 72.123 95.9122 72.9347C95.9298 73.7396 95.5277 74.3501 94.7774 74.6628C94.3618 74.8355 93.9233 74.9021 93.4807 74.9075C92.3918 74.9211 91.3015 74.9143 90.2126 74.9157C90.1707 74.9157 90.1303 74.9035 90.0547 74.8926H90.056ZM91.0613 74.0768C91.1099 74.0918 91.1396 74.1094 91.1693 74.1094C91.9991 74.1054 92.8276 74.1067 93.6575 74.0891C93.8356 74.085 94.0191 74.0279 94.1891 73.9653C94.6749 73.7859 94.9083 73.4038 94.8962 72.845C94.884 72.3175 94.656 71.9708 94.1581 71.8226C93.8626 71.7356 93.5455 71.6948 93.2364 71.6853C92.6009 71.6649 91.9654 71.6785 91.3298 71.6798C91.2462 71.6798 91.1625 71.6934 91.0613 71.7029V74.0768ZM91.0613 70.8912C91.8777 70.8912 92.6616 70.894 93.4456 70.8885C93.5509 70.8885 93.6574 70.8505 93.76 70.8178C94.2714 70.656 94.5467 70.2835 94.5507 69.7573C94.5534 69.2461 94.293 68.8695 93.8045 68.6941C93.6736 68.6479 93.5347 68.6044 93.397 68.6016C92.6549 68.584 91.9127 68.5799 91.1706 68.5731C91.1409 68.5731 91.1099 68.5921 91.0613 68.6084V70.8912Z" fill="black"/>
<path d="M27.2383 74.8885V67.7927C27.3395 67.7845 27.4231 67.7709 27.5068 67.7709C28.4567 67.7709 29.4053 67.7669 30.3553 67.7736C30.7776 67.7764 31.1946 67.8362 31.5913 67.9898C32.4859 68.3379 32.8894 69.1129 32.6708 70.0537C32.575 70.4657 32.3429 70.7811 31.9934 71.0095C31.9043 71.068 31.8099 71.121 31.6857 71.1944C31.7734 71.2366 31.8328 71.2719 31.8976 71.295C32.6883 71.5942 33.0594 72.1135 33.0715 72.9443C33.0837 73.7491 32.7031 74.3365 31.9624 74.6533C31.5387 74.8341 31.088 74.9007 30.6346 74.9062C29.5457 74.9198 28.4554 74.913 27.3665 74.913C27.3354 74.913 27.3044 74.9007 27.2383 74.8871V74.8885ZM28.222 74.0809C28.28 74.0931 28.3205 74.1108 28.3609 74.1108C29.1692 74.1081 29.9788 74.1108 30.7871 74.0918C30.976 74.0877 31.1716 74.0319 31.3525 73.9667C31.8288 73.794 32.0744 73.4092 32.0717 72.8817C32.0676 72.342 31.8315 71.9749 31.3282 71.8239C31.0434 71.7383 30.7371 71.6961 30.4376 71.688C29.7805 71.6676 29.122 71.6798 28.4648 71.6825C28.3839 71.6825 28.3029 71.7016 28.2247 71.7124V74.0836L28.222 74.0809ZM28.2166 70.8926C28.3029 70.9035 28.3569 70.9144 28.4095 70.9144C29.0235 70.9144 29.6374 70.9184 30.2514 70.9076C30.4538 70.9035 30.6616 70.8817 30.8572 70.8314C31.4078 70.69 31.6952 70.327 31.7073 69.79C31.7208 69.2257 31.4523 68.8437 30.9085 68.6724C30.7655 68.6275 30.6144 68.5949 30.4659 68.5908C29.7656 68.5758 29.0653 68.5717 28.3663 68.5677C28.3178 68.5677 28.2678 68.5948 28.2166 68.6098V70.8899V70.8926Z" fill="black"/>
<path d="M110.066 74.8939C110.002 74.6465 109.984 68.2196 110.047 67.7968C110.121 67.7886 110.203 67.7709 110.286 67.7709C111.245 67.7709 112.206 67.7669 113.165 67.7736C113.588 67.7764 114.003 67.8376 114.4 67.9953C115.075 68.2618 115.481 68.7417 115.519 69.4854C115.555 70.1978 115.282 70.7539 114.64 71.1006C114.596 71.1251 114.555 71.1564 114.48 71.2053C114.608 71.2597 114.702 71.3005 114.798 71.3413C115.462 71.6146 115.825 72.1027 115.865 72.8314C115.909 73.5969 115.631 74.1869 114.949 74.5622C114.482 74.8192 113.968 74.8994 113.45 74.9075C112.361 74.9252 111.271 74.9157 110.182 74.9157C110.141 74.9157 110.1 74.9021 110.063 74.8953L110.066 74.8939ZM111.021 74.0755C111.074 74.0918 111.104 74.1081 111.133 74.1081C111.963 74.104 112.793 74.1067 113.623 74.0877C113.812 74.0836 114.006 74.0211 114.185 73.9531C114.505 73.8321 114.743 73.6037 114.813 73.2597C114.98 72.4317 114.689 71.9545 113.964 71.7668C113.891 71.7478 113.816 71.7301 113.741 71.7288C112.859 71.7138 111.977 71.7016 111.093 71.6907C111.075 71.6907 111.056 71.7097 111.02 71.7315V74.0768L111.021 74.0755ZM111.014 70.8912C111.098 70.9021 111.151 70.9144 111.202 70.9144C111.827 70.9144 112.452 70.9198 113.076 70.9062C113.289 70.9021 113.508 70.8749 113.713 70.8165C114.231 70.6683 114.505 70.2916 114.509 69.7655C114.513 69.2352 114.252 68.8559 113.744 68.6859C113.593 68.6356 113.43 68.5976 113.271 68.5935C112.572 68.5772 111.871 68.5745 111.171 68.569C111.121 68.569 111.072 68.5935 111.014 68.6098V70.8926V70.8912Z" fill="black"/>
<path d="M50.9766 73.1849C51.0494 73.0938 51.1236 73.0041 51.1938 72.9116C52.4352 71.2815 53.678 69.654 54.9113 68.0184C55.0489 67.8348 55.1906 67.7424 55.4213 67.7669C55.6102 67.7859 55.8032 67.7709 56.011 67.7709V74.894H55.0462V69.5194L54.976 69.4936C54.9059 69.582 54.8343 69.6703 54.7655 69.7601C53.5214 71.3875 52.2746 73.0123 51.04 74.6465C50.8862 74.8505 50.7269 74.9497 50.4746 74.9212C50.3046 74.9021 50.1319 74.9171 49.9672 74.9171C49.8917 74.671 49.8714 68.2305 49.9416 67.7913H50.8942V73.1659C50.9226 73.1727 50.9509 73.1781 50.9779 73.1849H50.9766Z" fill="black"/>
<path d="M100.708 73.1917C100.781 73.102 100.855 73.0123 100.925 72.9198C102.165 71.291 103.409 69.6635 104.641 68.0279C104.788 67.8335 104.938 67.7383 105.18 67.7655C105.358 67.7845 105.541 67.7696 105.742 67.7696V74.9048C105.44 74.9239 105.136 74.9266 104.798 74.898V69.5235C104.775 69.5126 104.753 69.5004 104.73 69.4895C104.66 69.5738 104.586 69.654 104.518 69.741C103.295 71.3413 102.073 72.9443 100.845 74.5432C100.497 74.9973 100.666 74.9062 100.109 74.9171C99.9697 74.9198 99.8307 74.9171 99.6999 74.9171C99.6229 74.6574 99.6095 68.1503 99.685 67.7696H100.627V73.1672C100.654 73.1754 100.679 73.1836 100.706 73.1904L100.708 73.1917Z" fill="black"/>
<path d="M22.9426 74.8994H21.9926V69.5221C21.9697 69.5112 21.9481 69.5017 21.9252 69.4909C21.855 69.5765 21.7821 69.6608 21.7147 69.7492C20.4638 71.3848 19.2103 73.0177 17.9689 74.6601C17.8204 74.8559 17.672 74.947 17.4305 74.9211C17.2524 74.9021 17.0702 74.9171 16.8691 74.9171V67.7927H17.8299V73.1686C17.8515 73.1795 17.8731 73.1904 17.8946 73.2012C17.9648 73.1169 18.039 73.034 18.1065 72.947C19.3479 71.3168 20.592 69.6907 21.8226 68.0537C21.9845 67.8389 22.1491 67.7342 22.415 67.7669C22.5823 67.7873 22.755 67.7709 22.9426 67.7709V74.8994Z" fill="black"/>
<path d="M42.8916 74.9008H41.9497V69.5248C41.9268 69.5153 41.9052 69.5058 41.8823 69.4963C41.8054 69.5915 41.7258 69.6853 41.6515 69.7818C40.4142 71.3998 39.1741 73.0163 37.9449 74.6411C37.7937 74.8409 37.6413 74.9551 37.3835 74.9225C37.2149 74.9008 37.0408 74.9184 36.8762 74.9184C36.7993 74.6778 36.7736 68.2971 36.8438 67.7941H37.7883V73.2053C37.9503 73.1537 37.9988 73.0394 38.065 72.9524C39.3131 71.3155 40.5626 69.6798 41.8027 68.0347C41.9484 67.8416 42.0928 67.7383 42.337 67.7669C42.5151 67.7873 42.6986 67.7709 42.87 67.7709C42.9429 68.0429 42.9604 74.467 42.8929 74.9008H42.8916Z" fill="black"/>
<path d="M129.346 67.7872H130.301V73.1781C130.327 73.1876 130.351 73.1958 130.377 73.2053C130.447 73.1156 130.517 73.0272 130.586 72.9374C131.826 71.3073 133.07 69.6812 134.302 68.0456C134.454 67.843 134.61 67.7383 134.865 67.7682C135.033 67.7872 135.206 67.7723 135.369 67.7723C135.445 68.0279 135.462 74.5092 135.392 74.8994H134.458C134.454 73.9966 134.457 73.0992 134.457 72.2019C134.457 71.3113 134.457 70.4208 134.457 69.5099C134.302 69.5357 134.259 69.6581 134.194 69.7437C132.988 71.3168 131.772 72.8844 130.59 74.4765C130.333 74.8232 130.068 74.9864 129.653 74.9211C129.56 74.9062 129.464 74.9116 129.347 74.9062V67.7899L129.346 67.7872Z" fill="black"/>
<path d="M64.0046 72.7635V74.8926H63.056C62.9832 74.6778 62.9589 68.2618 63.0345 67.7954C63.11 67.7873 63.191 67.7723 63.2733 67.7723C64.1247 67.7723 64.9762 67.7682 65.8276 67.7737C66.2931 67.7778 66.7506 67.843 67.1891 68.0116C68.2996 68.4399 68.8097 69.3685 68.7017 70.5337C68.6046 71.5969 67.9933 72.2468 67.011 72.5717C66.5765 72.7159 66.1231 72.7403 65.6697 72.7444C65.2285 72.7485 64.7859 72.7444 64.3433 72.7458C64.2381 72.7458 64.1328 72.7567 64.0033 72.7635H64.0046ZM64.0208 71.8362C64.0748 71.8525 64.1058 71.8688 64.1355 71.8688C64.7616 71.8675 65.3877 71.8851 66.0111 71.8525C66.3066 71.8362 66.6129 71.7628 66.8855 71.6445C67.4752 71.3875 67.714 70.8899 67.7126 70.255C67.7113 69.6214 67.4684 69.1251 66.8761 68.8722C66.6035 68.7567 66.2972 68.6901 66.0017 68.6737C65.4107 68.6411 64.8156 68.6574 64.2219 68.6561C64.1598 68.6561 64.0991 68.6683 64.0208 68.6765V71.8348V71.8362Z" fill="black"/>
<path d="M119.652 74.9062H118.691C118.722 74.6723 121.632 68.1462 121.866 67.7777H122.833C123.896 70.1353 124.962 72.501 126.039 74.8899C125.952 74.9035 125.912 74.9144 125.871 74.9144C125.592 74.9157 125.311 74.9144 125.014 74.9144C124.966 74.8137 124.915 74.7186 124.873 74.622C124.689 74.2046 124.5 73.79 124.33 73.3685C124.255 73.1808 124.151 73.1102 123.946 73.1115C123.008 73.1224 122.07 73.1156 121.131 73.1156C120.98 73.1156 120.827 73.1278 120.679 73.1129C120.498 73.0952 120.405 73.1713 120.339 73.3358C120.17 73.7478 119.987 74.153 119.809 74.5595C119.761 74.6683 119.71 74.7757 119.651 74.9048L119.652 74.9062ZM122.364 68.879C122.337 68.8831 122.312 68.8858 122.285 68.8899C121.794 70.017 121.301 71.1441 120.806 72.2808C121.213 72.3542 123.594 72.3365 123.841 72.259C123.348 71.1306 122.856 70.0048 122.363 68.8804L122.364 68.879Z" fill="black"/>
<path d="M74.0633 67.7709C74.3035 67.7709 74.5409 67.7845 74.7771 67.7668C74.9714 67.7519 75.0645 67.8335 75.14 68.0061C75.4437 68.7023 75.7594 69.3929 76.0725 70.085C76.7404 71.5683 77.4097 73.0517 78.0776 74.535C78.1262 74.641 78.1707 74.7498 78.2355 74.9007C77.8995 74.9293 77.6026 74.9238 77.3085 74.9062C77.241 74.9021 77.156 74.7988 77.1209 74.7213C76.9266 74.2971 76.7444 73.8674 76.5582 73.4405C76.515 73.3413 76.4665 73.2447 76.4138 73.136H72.6384C72.4629 73.5343 72.2862 73.9409 72.104 74.3447C72.0203 74.5309 71.9664 74.7797 71.8193 74.8749C71.6722 74.9701 71.4253 74.9116 71.2215 74.9184C71.1149 74.9211 71.0083 74.9184 70.9004 74.9184C70.9206 74.6655 73.6747 68.4521 74.0646 67.7709H74.0633ZM74.5274 68.7947C73.9985 70.0048 73.5033 71.1414 72.9932 72.308H76.0617C75.5516 71.1387 75.055 70.0034 74.5274 68.7947Z" fill="black"/>
<path d="M130.663 65.8906H131.294C131.509 66.5065 131.763 66.705 132.339 66.7118C132.924 66.7186 133.192 66.5187 133.431 65.8879H134.06C134.083 66.2944 133.945 66.6153 133.651 66.8668C133.546 66.9565 133.421 67.0368 133.293 67.0843C132.663 67.3195 132.025 67.3264 131.399 67.0789C130.886 66.875 130.623 66.4304 130.662 65.8906H130.663Z" fill="black"/>
</g>
<defs>
<clipPath id="clip0_199_6206">
<rect width="154" height="75" fill="white"/>
</clipPath>
</defs>
</svg>
