<svg width="121" height="121" viewBox="0 0 121 121" fill="none" xmlns="http://www.w3.org/2000/svg">
<g clip-path="url(#clip0_202_7547)">
<path id="onHover" d="M35.5788 54.4489C34.9324 54.4489 34.4779 54.4489 34.0233 54.4489C23.8586 54.4489 13.6939 54.4489 3.52587 54.4489C3.23295 54.4489 2.93666 54.4355 2.64374 54.4489C1.6707 54.496 0.798672 54.3245 0.263333 53.3861C-0.282106 52.4276 0.135391 51.6204 0.630326 50.8031C2.15217 48.2873 3.63361 45.748 5.18239 43.2523C5.59315 42.5898 5.59988 42.0953 5.18575 41.4328C3.72115 39.0818 2.31715 36.6904 0.899679 34.3092C0.347506 33.3809 -0.403315 32.4862 0.259966 31.2956C0.950183 30.0545 2.1387 30.2294 3.26662 30.2294C13.5155 30.2294 23.7644 30.2294 34.0132 30.2294H35.6024C35.6024 28.8639 35.6226 27.5791 35.5957 26.2909C35.5687 24.8783 36.1782 24.0308 37.5653 23.6171C39.2117 23.1294 40.7875 22.3827 42.4473 21.9623C44.3092 21.4914 45.6392 20.5026 46.6762 18.9017C47.6324 17.4252 48.8243 16.1 49.831 14.6537C50.6323 13.5035 51.6087 13.268 52.8949 13.6784C55.0531 14.3679 57.2146 15.0439 59.4031 15.6224C60.0866 15.804 60.8946 15.8208 61.5748 15.6426C63.7228 15.0775 65.8339 14.378 67.9618 13.7389C69.7126 13.2142 70.157 13.3656 71.2883 14.8488C71.5677 15.2154 71.8943 15.5585 72.1132 15.9621C74.3017 19.951 77.6618 22.2953 82.0994 23.1698C82.628 23.274 83.1264 23.5296 83.6482 23.6911C84.8031 24.0442 85.3721 24.8279 85.3788 26.0252C85.3855 27.3672 85.3788 28.7092 85.3788 30.2294H86.9579C97.1664 30.2294 107.371 30.2294 117.58 30.2294C117.873 30.2294 118.169 30.2294 118.462 30.2294C120.772 30.2597 121.61 31.7497 120.422 33.761C118.903 36.3272 117.378 38.8901 115.809 41.4227C115.402 42.0819 115.385 42.5763 115.799 43.2423C117.371 45.7749 118.896 48.3377 120.415 50.904C121.634 52.9657 120.772 54.4456 118.351 54.4456C107.934 54.4523 97.5165 54.4456 87.0993 54.4456H85.3855C85.3855 55.8111 85.3653 57.0959 85.3923 58.3841C85.4226 59.7967 84.793 60.6342 83.4226 61.068C81.3048 61.7373 79.2039 62.4672 77.1366 63.2777C76.443 63.5502 75.7427 64.0311 75.2713 64.6029C73.8606 66.3249 72.5677 68.1378 71.221 69.9136C70.1839 71.2792 69.6553 71.444 67.9719 70.9361C65.8036 70.2836 63.6488 69.5773 61.467 68.9854C60.8643 68.8206 60.1371 68.8374 59.531 69.0022C57.3459 69.5941 55.1911 70.2903 53.0194 70.9395C51.3158 71.4507 50.8175 71.2893 49.7737 69.9204C49.5448 69.621 49.3226 69.315 49.0903 69.0156C47.7065 67.2196 46.6122 65.0301 44.8547 63.7453C43.1376 62.4907 40.7437 62.1611 38.6461 61.4313C36.6394 60.7339 35.6181 59.3011 35.5822 57.1329C35.5687 56.2954 35.5822 55.4613 35.5822 54.4489H35.5788ZM68.3086 66.8294C68.4736 66.6848 68.7092 66.5301 68.881 66.3216C69.2277 65.9012 69.5981 65.4841 69.8607 65.0132C71.8876 61.3539 74.9616 59.2316 79.0255 58.263C81.4328 57.6879 81.5843 57.4692 81.3688 54.9635C81.0254 50.9746 82.0691 47.6079 84.6751 44.5506C86.4394 42.4788 86.4326 42.203 84.6617 40.1042C82.1062 37.0772 81.0288 33.7677 81.3655 29.8124C81.591 27.2024 81.4328 26.967 78.8773 26.3616C74.9313 25.4299 72.0694 23.3077 69.9651 19.8636C68.652 17.7144 68.4062 17.637 66.0292 18.6158C62.2986 20.1528 58.7331 20.1461 55.0059 18.6023C52.612 17.6135 52.3528 17.6808 51.0532 19.8367C48.9354 23.348 45.9994 25.4434 42.0332 26.4053C39.5653 27.004 39.407 27.2159 39.6292 29.7787C39.9693 33.7273 38.9222 37.047 36.3566 40.0773C34.5587 42.1996 34.5553 42.4821 36.3734 44.628C38.9121 47.6247 39.9457 50.904 39.6259 54.8055C39.4104 57.4625 39.5585 57.6778 42.1814 58.3269C46.0129 59.272 48.8478 61.2866 50.9252 64.6601C52.3528 66.9774 52.6188 67.075 55.1507 66.0189C58.861 64.4751 62.4198 64.5121 66.0426 66.1097C66.7295 66.4124 67.477 66.5671 68.3052 66.8261L68.3086 66.8294ZM85.601 34.3058C87.0488 36.3877 88.3653 38.2779 89.6784 40.1648C91.1295 42.2501 91.1295 42.4283 89.6885 44.5001C88.3619 46.4105 87.032 48.3176 85.628 50.3356H115.375C114.439 48.7716 113.57 47.3489 112.725 45.9128C110.314 41.8027 110.307 42.8824 112.715 38.7858C113.573 37.3261 114.455 35.8765 115.398 34.3025H85.6044L85.601 34.3058ZM5.59652 34.3025C6.96012 36.5794 8.1621 38.6849 9.4651 40.7298C10.1923 41.8734 10.1688 42.8622 9.44153 43.9889C8.28331 45.7849 7.21937 47.6449 6.12849 49.4846C5.97361 49.7436 5.87597 50.0362 5.75813 50.3053H35.3432C34.1984 48.6539 33.1513 47.137 32.0941 45.6235C29.6026 42.055 29.6161 42.6133 32.1177 39.0246C33.1816 37.4976 34.2355 35.964 35.3869 34.3025H5.59988H5.59652Z" fill="#3A9C6F"/>
<path id="onHover" d="M50.3884 121H46.5098C46.5098 119.9 46.4795 118.865 46.5131 117.835C46.668 113.13 47.0451 108.388 45.833 103.783C45.2876 101.715 44.3718 99.6598 43.227 97.8503C41.1429 94.5508 38.7726 91.433 36.5033 88.2513C35.6077 86.9967 34.2508 86.8555 33.463 87.8914C32.9007 88.6347 33.0421 89.3612 33.4832 90.1146C34.7794 92.3243 36.1161 94.5138 37.3046 96.7807C37.8703 97.8604 38.1329 99.0981 38.6009 100.457H34.3047C34.3721 98.8055 33.3216 98.2303 31.8974 97.7864C27.8571 96.5251 23.8639 95.1092 19.8371 93.8008C18.2681 93.2929 16.9954 92.4319 15.9349 91.1707C13.2582 87.9856 10.5343 84.8408 7.82397 81.6826C7.52432 81.3329 7.2314 80.8082 6.86104 80.7308C6.18765 80.5929 5.29542 80.4954 4.80049 80.8317C4.37962 81.121 4.25168 82.0425 4.25505 82.6816C4.25505 83.1154 4.67591 83.5728 4.9621 83.9832C8.39971 88.9105 11.7296 93.9185 15.3456 98.7113C16.8911 100.756 19.0526 102.334 20.9078 104.15C23.7562 106.935 26.6888 109.646 29.3857 112.572C31.0961 114.428 32.2475 116.715 32.6314 119.292C32.6987 119.739 32.7054 120.193 32.7526 120.832C31.4058 120.748 30.1668 120.671 28.8571 120.587C28.0692 116.295 25.1063 113.476 22.1771 110.648C21.2411 109.743 20.2613 108.875 19.2445 108.065C15.1032 104.769 11.5781 100.951 8.71957 96.4612C6.35263 92.7413 3.65237 89.2401 1.18106 85.5875C-1.19598 82.0728 0.335966 77.6903 4.28198 76.5703C6.33243 75.9885 8.19433 76.4324 9.78351 77.8652C10.0832 78.1377 10.2549 78.5547 10.5781 79.0458C10.7397 77.6533 10.7195 76.6275 10.9956 75.6925C11.5781 73.7384 13.4231 72.4132 15.4164 72.3157C17.625 72.2081 19.5307 73.3281 20.3926 75.2721C20.5947 75.7295 20.7866 76.2138 20.8606 76.7049C21.6956 82.1502 24.6754 86.7109 27.1063 91.4734C27.5406 92.3243 29.1028 92.6001 30.1432 93.1416C30.2173 93.0541 30.2914 92.9667 30.3621 92.8792C30.1668 92.4992 29.9715 92.1191 29.7762 91.7391C28.352 88.9576 29.1735 85.6985 31.7122 84.074C34.2812 82.4293 37.611 82.9674 39.4662 85.5034C42.1698 89.1964 44.8095 92.9431 47.3717 96.737C49.0955 99.2898 49.8396 102.233 50.2605 105.256C50.9911 110.486 50.6376 115.723 50.3884 121ZM21.5441 90.1549C21.5845 89.8825 21.6317 89.7917 21.6014 89.7379C19.524 85.7624 17.5745 81.7432 16.7867 77.2565C16.7227 76.9033 15.9551 76.6713 15.514 76.382C15.2615 76.8394 14.7632 77.3137 14.7968 77.7475C14.9147 79.2039 15.2009 80.6501 15.4635 82.093C15.6487 83.1154 15.6352 84.296 16.1672 85.1065C17.1469 86.5999 18.4129 87.9217 19.6688 89.2132C20.1166 89.674 20.8741 89.8321 21.5408 90.1516L21.5441 90.1549Z" fill="#3A9C6F"/>
<path id="onHover" d="M74.6138 120.997H70.4523C70.4523 116.843 70.3782 112.736 70.4691 108.633C70.5971 102.865 72.4388 97.7122 76.0885 93.1784C77.9302 90.8913 79.5025 88.3924 81.2096 85.9977C83.2869 83.0816 86.6 82.3114 89.3507 84.0873C92.051 85.8329 92.7244 89.0886 91.0275 92.1829C90.9096 92.3981 90.8053 92.6235 90.6167 93.0002C92.5089 92.5428 94.2361 92.1829 94.795 90.0539C94.9499 89.4586 95.3203 88.9137 95.6166 88.3587C97.6737 84.501 99.5323 80.5827 100.364 76.2271C100.785 74.0107 102.606 72.5577 104.64 72.3458C106.859 72.1171 108.892 73.0723 109.754 75.0163C110.229 76.0859 110.313 77.3236 110.576 78.4974C110.636 78.4436 110.865 78.2586 111.074 78.0568C113.195 76.0018 116.35 75.7596 118.673 77.4783C120.996 79.197 121.67 82.2778 120.286 84.9248C120.091 85.2947 119.865 85.6512 119.623 85.9943C116.06 91.0898 112.555 96.229 108.896 101.25C107.774 102.791 106.263 104.056 104.862 105.377C101.899 108.172 98.8084 110.836 95.9364 113.718C94.0947 115.565 92.5964 117.734 92.2833 120.556C91.014 120.657 89.7716 120.755 88.1892 120.879C88.4585 119.571 88.5663 118.407 88.9433 117.344C90.2935 113.55 92.9533 110.675 95.8253 108.001C98.1316 105.855 100.589 103.871 102.886 101.715C104.189 100.49 105.431 99.1517 106.475 97.7021C109.717 93.2053 112.852 88.6312 116.03 84.0839C116.198 83.8418 116.374 83.6063 116.528 83.3574C117.108 82.4359 117.209 81.5345 116.303 80.7609C115.525 80.0983 114.458 80.2766 113.65 81.2082C111.64 83.5256 109.657 85.8665 107.653 88.1906C102.687 93.9621 104.458 92.6235 97.6401 94.9879C94.7883 95.9767 91.9231 96.942 89.0376 97.8299C87.8289 98.2033 86.8559 98.691 86.7111 100.087H82.5058C82.9233 98.9197 83.1758 97.8367 83.6809 96.8916C84.8896 94.6347 86.2195 92.4418 87.4922 90.222C88.1959 88.9944 88.0646 88.0695 87.1319 87.4775C86.2566 86.9226 85.3239 87.1748 84.5563 88.2511C82.1456 91.638 79.7146 95.0148 77.3679 98.4454C74.8831 102.078 74.5128 106.289 74.4185 110.51C74.3512 113.49 74.5397 116.476 74.607 119.46C74.6171 119.917 74.607 120.378 74.607 120.997H74.6138ZM99.3841 89.9092C99.4582 90.0101 99.5323 90.111 99.6063 90.2153C100.344 89.7545 101.185 89.4014 101.791 88.8061C102.805 87.8105 103.68 86.6737 104.593 85.5739C104.825 85.2947 105.071 84.9584 105.135 84.6153C105.562 82.3081 105.983 79.9974 106.293 77.67C106.344 77.2832 105.832 76.8224 105.583 76.3953C105.135 76.6677 104.677 76.92 104.249 77.226C104.145 77.3 104.138 77.5355 104.111 77.6969C103.404 81.6186 101.882 85.2275 99.9632 88.6917C99.7444 89.0852 99.576 89.5023 99.3841 89.9092Z" fill="#3A9C6F"/>
<path id="onHover" d="M93.1932 20.4291C92.3784 19.3663 91.6511 18.4144 90.8633 17.3886C91.8835 16.5074 92.8531 15.6699 93.8969 14.7686C94.7622 15.8886 95.5702 16.9312 96.486 18.1151C95.3648 18.9021 94.3245 19.6353 93.1898 20.4291H93.1932Z" fill="#3A9C6F"/>
<path id="onHover" d="M56.4859 4.35218C56.294 3.02029 56.1155 1.79267 55.9102 0.376696C57.3209 0.248888 58.6273 0.131171 60.0952 0V4.03266C58.9976 4.1302 57.836 4.2311 56.4859 4.34882V4.35218Z" fill="#3A9C6F"/>
<path id="onHover" d="M28.7163 63.8301C29.5108 64.8761 30.2381 65.8279 31.0361 66.8773C30.026 67.7215 29.0529 68.5388 27.9587 69.4536C27.1069 68.3403 26.3055 67.2943 25.3965 66.1037C26.4941 65.3503 27.5412 64.6373 28.7163 63.8301Z" fill="#3A9C6F"/>
<path id="onHover" d="M36.4999 8.31445C37.3316 9.42772 38.0959 10.4535 38.9039 11.5399C37.8938 12.3673 36.9646 13.1274 35.9511 13.9582C35.0454 12.966 34.1801 12.0209 33.2441 10.9984C34.362 10.0735 35.3855 9.23265 36.4999 8.31445Z" fill="#3A9C6F"/>
<path id="onHover" d="M33.8234 69.874C34.6281 70.5904 35.5035 71.3674 36.49 72.2452C35.6819 73.2609 34.8873 74.2565 33.985 75.3899C32.911 74.4347 31.9043 73.5401 30.8066 72.5681C31.8537 71.6331 32.7864 70.7989 33.82 69.874H33.8234Z" fill="#3A9C6F"/>
<path id="onHover" d="M84.3175 6.48101C83.5464 7.69854 82.8764 8.75463 82.166 9.87799C81.0415 9.24232 79.9977 8.65373 78.8496 8.00797C79.4355 6.8207 80.0011 5.67716 80.6273 4.40918C81.8731 5.10876 83.0246 5.75452 84.3175 6.48101Z" fill="#3A9C6F"/>
<path id="onHover" d="M95.2363 23.6844C96.408 23.0251 97.5225 22.3996 98.7413 21.7168C99.3844 23.0083 99.9736 24.1956 100.62 25.4938C99.344 26.0522 98.179 26.5668 96.9467 27.1049C96.3541 25.9176 95.8188 24.8447 95.2397 23.681L95.2363 23.6844Z" fill="#3A9C6F"/>
<path id="onHover" d="M28.7002 22.8708C28.0773 24.0547 27.5353 25.0805 26.9259 26.2408C25.7542 25.7027 24.6061 25.1713 23.293 24.5659C23.9461 23.3013 24.5623 22.1039 25.2357 20.8057C26.4343 21.5187 27.5252 22.1678 28.7002 22.8708Z" fill="#3A9C6F"/>
<path id="onHover" d="M68.563 0.515037C68.3307 1.93437 68.132 3.15863 67.9166 4.48043C66.6607 4.34926 65.4789 4.22818 64.1523 4.09028C64.2163 2.75839 64.2803 1.5005 64.351 0.0878906C65.8021 0.235878 67.1119 0.370412 68.5664 0.5184L68.563 0.515037Z" fill="#3A9C6F"/>
<path id="onHover" d="M27.5781 17.2711C28.5074 16.131 29.3222 15.132 30.2447 14.002C31.275 14.9235 32.248 15.7946 33.2379 16.6825C32.413 17.6983 31.6521 18.6367 30.8238 19.6591C29.7666 18.8822 28.7363 18.1254 27.5781 17.2711Z" fill="#3A9C6F"/>
<path id="onHover" d="M93.2441 62.2955C93.8872 61.1251 94.463 60.0757 95.0926 58.9355C96.2912 59.514 97.4326 60.0656 98.6952 60.6744C98.0184 61.9323 97.3922 63.0927 96.6952 64.3875C95.5303 63.6812 94.4428 63.022 93.2441 62.2955Z" fill="#3A9C6F"/>
<path id="onHover" d="M85.25 76.7588C84.4251 75.6187 83.6944 74.6063 82.8965 73.4997C83.8796 72.6993 84.8358 71.9223 85.8728 71.0781C86.7449 72.067 87.5933 73.0322 88.5293 74.0917C87.4485 74.9695 86.4183 75.807 85.2533 76.7555L85.25 76.7588Z" fill="#3A9C6F"/>
<path id="onHover" d="M91.0855 65.4639C92.2101 66.3182 93.2 67.0749 94.2807 67.8989C93.3851 68.9819 92.54 70.001 91.5838 71.1547C90.6007 70.2398 89.6681 69.3754 88.6445 68.4203C89.456 67.4415 90.2371 66.4931 91.0855 65.4639Z" fill="#3A9C6F"/>
<path id="onHover" d="M37.416 77.8685C38.2274 76.624 38.8874 75.6116 39.6011 74.5186C40.719 75.161 41.756 75.7596 42.9041 76.4189C42.3014 77.596 41.7189 78.7328 41.0657 80.0075C39.8133 79.2743 38.6449 78.5882 37.416 77.8685Z" fill="#3A9C6F"/>
<path id="onHover" d="M40.0352 5.94597C41.3516 5.24975 42.5199 4.62753 43.7623 3.97168C44.3448 5.21612 44.8902 6.37311 45.466 7.6041C44.3381 8.20951 43.2876 8.77455 42.1024 9.41022C41.4291 8.27677 40.7759 7.18705 40.0385 5.94597H40.0352Z" fill="#3A9C6F"/>
<path id="onHover" d="M72.7118 1.40918C74.0687 1.84642 75.3279 2.25002 76.7285 2.70071C76.2403 3.99896 75.7925 5.19295 75.3144 6.4643C74.1057 6.07415 72.971 5.71091 71.7051 5.30058C72.0384 4.00905 72.3583 2.77134 72.7084 1.40918H72.7118Z" fill="#3A9C6F"/>
<path id="onHover" d="M44.9316 81.7703C45.4703 80.4014 45.9249 79.2444 46.403 78.0303C47.6218 78.4372 48.7261 78.8072 50.0123 79.2344C49.6655 80.4788 49.3255 81.7031 48.9383 83.0955C47.5881 82.6482 46.339 82.2345 44.9316 81.7703Z" fill="#3A9C6F"/>
<path id="onHover" d="M57.2678 84.5786C55.8201 84.4071 54.5541 84.2557 53.0996 84.0842C53.3252 82.7288 53.5306 81.4843 53.7562 80.1289C55.0322 80.2803 56.2106 80.4182 57.5271 80.5729C57.4429 81.8879 57.3621 83.1223 57.2678 84.5786Z" fill="#3A9C6F"/>
<path id="onHover" d="M23.2009 62.4643C22.5511 61.0987 21.9821 59.9014 21.3828 58.6401C22.6555 58.1087 23.807 57.6278 25.0662 57.1064C25.6184 58.2332 26.147 59.3061 26.7463 60.5236C25.6117 61.1458 24.4905 61.758 23.2009 62.4643Z" fill="#3A9C6F"/>
<path id="onHover" d="M88.1994 14.5974C87.2162 13.7464 86.3375 12.983 85.3105 12.095C86.122 11.0558 86.9233 10.0299 87.7852 8.92676C88.8828 9.87186 89.8828 10.7396 90.9838 11.6847C90.0377 12.6735 89.1556 13.5951 88.1994 14.5974Z" fill="#3A9C6F"/>
<path id="onHover" d="M77.9207 80.9897C77.3484 79.7217 76.8231 78.5512 76.2676 77.3202C77.4258 76.7249 78.4931 76.1733 79.6648 75.5713C80.3382 76.7384 80.9813 77.8483 81.6748 79.0524C80.392 79.7149 79.2103 80.3237 77.9207 80.9897Z" fill="#3A9C6F"/>
<path id="onHover" d="M72.6738 78.7197C73.1115 80.0146 73.4987 81.1582 73.96 82.5237C72.62 82.9105 71.3237 83.2804 69.9062 83.6908C69.5931 82.332 69.3069 81.0875 69.0039 79.7691C70.2497 79.4126 71.4011 79.083 72.6738 78.7197Z" fill="#3A9C6F"/>
<path id="onHover" d="M52.6954 5.06544C51.4766 5.42532 50.3318 5.76166 49.049 6.14172C48.6046 4.88718 48.1804 3.69319 47.709 2.36803C49.0928 1.95098 50.3486 1.57428 51.7358 1.15723C52.0658 2.50257 52.3688 3.73692 52.6954 5.06544Z" fill="#3A9C6F"/>
<path id="onHover" d="M65.6985 84.3932C64.244 84.511 62.9645 84.6119 61.5605 84.7262V80.7036C62.7322 80.6061 63.9207 80.5086 65.2103 80.4043C65.3753 81.7429 65.5268 82.9773 65.6985 84.3932Z" fill="#3A9C6F"/>
<path id="onHover" d="M42.3457 42.2838C42.3659 32.2644 50.5677 24.1352 60.6146 24.1789C70.5638 24.2192 78.668 32.409 78.6444 42.3948C78.6242 52.4109 70.4157 60.5468 60.3755 60.5031C50.4297 60.4594 42.3255 52.2696 42.3457 42.2838ZM60.5001 56.4671C68.2642 56.4671 74.6108 50.107 74.6108 42.3376C74.6108 34.5649 68.2608 28.2149 60.4934 28.2183C52.7293 28.2183 46.3827 34.575 46.3827 42.3444C46.3827 50.1137 52.7394 56.4671 60.5001 56.4671Z" fill="#3A9C6F"/>
<path id="onHover" d="M67.0248 34.9922C68.0921 35.8902 69.0786 36.721 70.1055 37.5853C66.7285 41.6449 63.4356 45.6237 60.1091 49.5723C59.2573 50.5847 58.1024 50.7663 57.2237 49.9221C55.1429 47.9176 53.1598 45.8087 51.1094 43.7167C52.0083 42.8221 52.8972 41.9375 53.8096 41.0328C55.2406 42.516 56.658 43.9892 58.1934 45.58C61.2236 41.9476 64.0619 38.5439 67.0248 34.9956V34.9922Z" fill="#3A9C6F"/>
</g>
<defs>
<clipPath id="clip0_202_7547">
<rect width="121" height="121" fill="white"/>
</clipPath>
</defs>
</svg>
