<svg width="29" height="27" viewBox="0 0 29 27" fill="none" xmlns="http://www.w3.org/2000/svg">
<path fill-rule="evenodd" clip-rule="evenodd" d="M8.16176 9.625C8.16176 5.79948 11.2129 2.84375 14.7923 2.84375C18.3717 2.84375 21.4229 5.79948 21.4229 9.625H8.16176ZM5.75065 9.625C5.75065 4.71176 9.71616 0.583328 14.7923 0.583328C19.8685 0.583328 23.834 4.71176 23.834 9.625H24.6644C26.4266 9.625 27.3078 9.625 27.895 9.96639C28.4093 10.2654 28.7832 10.7333 28.9423 11.2769C29.124 11.8976 28.8684 12.6804 28.3574 14.2461L28.3573 14.2461L25.2148 23.8733C24.9168 24.7861 24.7678 25.2424 24.4749 25.5807C24.2162 25.8793 23.8794 26.1113 23.4965 26.2545C23.0629 26.4167 22.5492 26.4167 21.5218 26.4167H8.06286C7.03548 26.4167 6.52178 26.4167 6.08811 26.2545C5.70527 26.1113 5.36841 25.8793 5.10978 25.5807C4.81681 25.2424 4.66783 24.7861 4.36988 23.8733L1.22729 14.2461C0.716219 12.6804 0.460684 11.8976 0.642337 11.2769C0.80142 10.7333 1.17538 10.2654 1.68964 9.96639C2.27686 9.625 3.158 9.625 4.92027 9.625H5.75065ZM3.41438 12.223C3.75994 12.2096 4.22661 12.2083 4.92027 12.2083H24.6644C25.358 12.2083 25.8247 12.2096 26.1703 12.223C26.0853 12.5183 25.9587 12.9102 25.7735 13.4776L22.6309 23.1048C22.5548 23.338 22.4957 23.5189 22.4423 23.6746C22.4225 23.7325 22.4049 23.7827 22.3891 23.8265C22.2012 23.8325 21.9402 23.8333 21.5218 23.8333H8.06286C7.64442 23.8333 7.38344 23.8325 7.19549 23.8265C7.17972 23.7827 7.1621 23.7325 7.14229 23.6746C7.08894 23.5189 7.02982 23.338 6.95371 23.1048L3.81112 13.4776C3.62591 12.9102 3.4993 12.5183 3.41438 12.223Z" fill="#393939"/>
</svg>
