<svg width="33" height="30" viewBox="0 0 33 30" fill="none" xmlns="http://www.w3.org/2000/svg">
<path fill-rule="evenodd" clip-rule="evenodd" d="M16.0027 4.96334C11.3222 4.96334 7.53655 8.75521 7.53655 13.422C7.53655 18.0888 11.3222 21.8807 16.0027 21.8807C20.6833 21.8807 24.4689 18.0888 24.4689 13.422C24.4689 8.75521 20.6833 4.96334 16.0027 4.96334ZM5.16602 13.422C5.16602 7.43118 10.0226 2.58333 16.0027 2.58333C21.9829 2.58333 26.8395 7.43118 26.8395 13.422C26.8395 16.3156 25.7065 18.9425 23.8612 20.8853L29.7077 26.7301L28.035 28.4167L22.0404 22.4238C20.3145 23.584 18.2371 24.2607 16.0027 24.2607C10.0226 24.2607 5.16602 19.4128 5.16602 13.422Z" fill="#393939"/>
</svg>
