<svg width="95" height="95" viewBox="0 0 95 95" fill="none" xmlns="http://www.w3.org/2000/svg">
<g clip-path="url(#clip0_233_15140)">
<path   id="onHover" d="M49.0799 0C50.0175 0.265178 50.9846 0.456696 51.8854 0.812722C53.3531 1.39219 54.2171 2.42589 54.1017 4.13236C54.0551 4.82968 54.1508 5.54419 54.2441 6.24151C54.4994 8.12968 55.5106 9.25177 57.3883 9.58325C59.7372 9.9982 62.1131 10.2585 64.4571 10.6955C67.0195 11.1719 69.5255 11.8643 71.7836 13.2442C75.2149 15.3386 75.9783 18.3636 73.8233 21.7667C71.5922 25.2901 69.3562 28.8038 67.7313 32.6636C65.8487 37.1299 64.6436 41.7361 65.2719 46.6247C65.5125 48.4932 65.9101 50.3937 66.5875 52.1419C67.6037 54.7593 68.9291 57.2539 70.1244 59.8001C70.2226 59.7928 70.3208 59.7854 70.4165 59.778C72.6574 54.472 74.9008 49.1685 77.1785 43.7765C76.0593 43.1258 74.9425 42.5095 73.8601 41.8392C71.0375 40.0886 69.9379 36.4227 71.3173 33.4542C71.8008 32.4107 72.4193 32.0792 73.2366 32.4205C74.0933 32.7765 74.2847 33.4886 73.8184 34.5763C73.028 36.4227 73.595 38.387 75.2959 39.4919C76.2188 40.091 77.1957 40.6042 78.2855 41.2352C79.2893 38.5883 80.9903 36.71 83.8841 36.2877C85.5482 36.0446 87.1215 36.3736 88.5132 37.3533C90.2166 38.5491 91.1836 40.1966 91.353 42.2787C91.4904 43.9926 91.3726 44.2848 89.6177 47.6805C90.4252 48.449 91.3137 49.1243 91.9887 49.9689C94.1019 52.6182 94.2099 56.0754 92.3176 59.0685C89.2569 63.9129 86.1569 68.7352 83.0888 73.5747C81.599 75.922 81.9401 78.564 83.916 80.3171C84.829 81.1273 85.9188 81.4613 87.1068 81.5595C91.4389 81.918 94.4358 85.2622 94.3548 89.6352C94.3351 90.6787 94.367 91.7222 94.3327 92.7657C94.3032 93.684 93.8123 94.1628 92.9803 94.1579C92.1507 94.1555 91.6671 93.6791 91.6303 92.7535C91.5861 91.5577 91.6475 90.357 91.5567 89.1662C91.3456 86.3916 89.5931 84.5329 86.8343 84.3095C81.8027 83.9044 79.3065 79.7057 79.412 76.2215C79.4587 74.7115 79.9643 73.3562 80.7767 72.0867C83.8521 67.2865 86.9128 62.4789 89.9662 57.664C91.7358 54.8747 90.975 51.8718 88.0075 50.1702C87.8431 50.3986 87.6664 50.6319 87.5044 50.8774C83.4128 57.0993 79.3261 63.326 75.2198 69.5405C74.8885 70.0414 74.8124 70.476 74.9597 71.0702C75.75 74.2401 76.0495 77.4762 76.0642 80.737C76.0765 83.1678 74.4982 84.7686 72.0536 84.8055C70.0949 84.8349 68.1314 84.857 66.1752 84.7907C65.3579 84.7637 64.9136 85.0559 64.4865 85.7238C62.8641 88.2503 61.1828 90.7401 59.5163 93.2396C58.8904 94.1776 58.213 94.4108 57.457 93.9713C56.7256 93.549 56.6004 92.9425 57.0397 91.8843C57.8841 89.8463 58.7333 87.8108 59.5776 85.7753C59.693 85.4979 59.7936 85.2155 59.9286 84.8644H52.013C52.013 85.1934 52.013 85.5175 52.013 85.8416C52.013 88.0514 52.0179 90.2613 52.0106 92.4711C52.0056 93.576 51.5197 94.1285 50.6066 94.1113C49.7279 94.0941 49.2738 93.5637 49.2689 92.4981C49.2616 89.9863 49.2665 87.4744 49.2665 84.8865H45.9505C45.9505 86.0503 45.9505 87.2093 45.9505 88.3657C45.9505 89.6843 45.953 91.0052 45.9505 92.3238C45.9456 93.5416 45.521 94.0965 44.5956 94.1088C43.6581 94.1211 43.2089 93.5637 43.2064 92.3631C43.2015 90.1852 43.2064 88.0048 43.2064 85.8269C43.2064 85.5249 43.2064 85.2253 43.2064 84.8177C41.2969 84.8177 39.4683 84.8128 37.6422 84.8251C37.5096 84.8251 37.3501 84.9111 37.2544 85.0093C36.5156 85.7557 35.8701 86.6224 35.0429 87.251C30.7305 90.5314 26.0449 93.0456 20.6402 94.0032C20.1959 94.0818 19.759 94.1898 19.3172 94.2831H15.4588C14.7397 94.1604 14.0156 94.0499 13.2989 93.9099C9.25154 93.1193 5.69013 91.4423 3.02214 88.1742C1.67956 86.5291 0.967764 84.6655 1.01194 82.4999C1.06349 79.9242 1.03649 77.3461 1.02176 74.7704C0.999672 70.724 1.09785 66.6678 0.896585 62.6287C0.486692 54.4303 3.86156 48.4049 10.9574 44.4542C15.422 41.9694 20.3285 40.9749 25.3577 40.5084C26.8009 40.3734 28.2515 40.3194 29.7438 40.2261C29.2111 36.8794 28.2441 33.739 26.6904 30.8466C24.9379 27.5884 22.994 24.4332 21.0476 21.2855C19.1749 18.258 19.6412 15.5866 22.5768 13.5732C24.7367 12.0902 27.2083 11.3585 29.7388 10.8821C32.4412 10.3739 35.1755 10.0424 37.8876 9.5857C39.6745 9.28369 40.644 8.29664 40.9508 6.50914C41.0809 5.75781 41.1791 4.97455 41.1226 4.22075C40.9827 2.37678 41.9424 1.33571 43.5157 0.741517C44.3551 0.422321 45.2608 0.24308 46.1395 0C47.1188 0 48.1006 0 49.0799 0ZM23.2026 70.6184C23.2763 70.7191 23.3524 70.8198 23.426 70.9204C25.2938 69.8327 27.2574 68.8801 29.0025 67.6229C31.0103 66.1816 32.8364 64.485 34.7165 62.8693C35.2221 62.4347 35.7056 62.1573 36.3683 62.4274C37.0286 62.6975 37.247 63.2327 37.247 63.9006C37.247 64.1461 37.247 64.3917 37.247 64.6372C37.247 70.0684 37.247 75.5021 37.247 80.9334C37.247 81.2894 37.2765 81.6454 37.2937 82.0137C37.5023 82.0457 37.6201 82.08 37.7379 82.08C45.332 82.0825 52.9261 82.08 60.5201 82.0972C61.0798 82.0972 61.2368 81.805 61.4136 81.3803C63.8459 75.5267 66.3004 69.6805 68.7106 63.8171C68.8579 63.4611 68.8137 62.9086 68.6395 62.56C67.6896 60.6718 66.6661 58.8229 65.6769 56.9544C61.9339 49.8805 61.3964 42.5587 63.9269 34.9716C65.5616 30.0707 68.0676 25.6314 70.8558 21.3272C71.2706 20.6864 71.6928 20.0357 72.0045 19.3433C72.5322 18.1598 72.3727 17.1531 71.3492 16.3698C70.4165 15.6553 69.3635 15.0317 68.2713 14.6044C65.0854 13.3547 61.7105 12.8808 58.3308 12.537C54.1803 12.1147 52.1799 10.3518 51.5368 6.36919C51.4239 5.67432 51.338 4.95982 51.3773 4.26249C51.4215 3.47433 51.0386 3.2116 50.3685 3.19933C48.6259 3.17232 46.8807 3.16495 45.1381 3.15267C44.2324 3.14776 43.7096 3.48415 43.8274 4.51294C43.879 4.96227 43.7857 5.43124 43.744 5.88794C43.4052 9.76985 41.5448 11.798 37.7428 12.3946C36.1106 12.65 34.4661 12.8145 32.8364 13.0895C30.0579 13.556 27.2869 14.0815 24.7661 15.4294C22.3878 16.7038 22.1006 17.9339 23.5904 20.1511C23.8973 20.6078 24.2163 21.0596 24.5231 21.5187C26.9408 25.1502 29.086 28.9265 30.6249 33.0245C33.2512 40.0174 33.8402 47.0691 30.8507 54.089C29.6309 56.9544 28.0649 59.6774 26.6094 62.4397C25.2227 65.0669 23.9611 67.7408 23.2026 70.6234V70.6184ZM6.80936 68.5289C8.35076 66.1963 10.4321 64.5733 12.8105 63.299C16.2295 61.4698 19.9063 60.5122 23.7279 60.0113C24.1967 59.9499 24.8668 59.8026 25.0582 59.4711C26.9972 56.0926 28.735 52.6109 29.5719 48.7633C29.9745 46.9095 30.2052 45.0312 30.0236 43.0153C28.4429 43.0866 26.9383 43.1553 25.3896 43.2265C25.3896 44.4002 25.3969 45.4118 25.3896 46.4209C25.3797 47.4399 24.8741 48.0194 24.0224 48.0145C23.1707 48.012 22.67 47.4374 22.6528 46.4062C22.6381 45.4928 22.6504 44.5819 22.6504 43.5703C21.4649 43.806 20.4021 44.0196 19.3099 44.2357C19.3099 46.9415 19.3099 49.5466 19.3099 52.1517C19.3099 53.6249 18.9294 54.2069 17.9599 54.2265C16.9561 54.2461 16.5658 53.6568 16.5658 52.1173C16.5658 49.7946 16.5658 47.4743 16.5658 44.987C15.5914 45.3725 14.7544 45.7285 13.9003 46.0305C13.3014 46.2417 13.0412 46.5756 13.0878 47.2484C13.1541 48.1937 13.1124 49.1488 13.1001 50.1015C13.0878 51.0935 12.6362 51.6238 11.8066 51.6606C10.9427 51.6975 10.4051 51.1377 10.3708 50.1285C10.3487 49.4975 10.3659 48.8665 10.3659 47.9973C9.64671 48.5865 9.12636 49.0432 8.57657 49.4582C7.70769 50.1138 7.34934 50.9093 7.39597 52.0511C7.49415 54.4401 7.43279 56.8365 7.42052 59.2281C7.41561 60.3133 6.97135 60.8019 6.06321 60.797C5.17224 60.7921 4.72062 60.2863 4.69608 59.2133C4.67644 58.3539 4.69117 57.4946 4.69117 56.6352C4.69117 56.3013 4.69117 55.9698 4.69117 55.6359C3.75111 57.6222 3.57685 59.67 3.59157 61.7669C3.61121 64.5071 4.4629 66.8151 6.81918 68.5265L6.80936 68.5289ZM3.75111 69.6633C3.75111 70.1053 3.75111 70.4048 3.75111 70.7044C3.75111 74.5077 3.81247 78.3111 3.72657 82.112C3.67993 84.172 4.38191 85.8711 5.84722 87.1945C6.94926 88.1889 8.16176 89.1465 9.48471 89.7849C14.4231 92.1666 19.467 92.0144 24.5354 90.114C25.1858 89.8709 25.4092 89.5811 25.4043 88.8764C25.3699 83.8479 25.3871 78.8169 25.3847 73.7883C25.3847 73.5305 25.3552 73.2727 25.338 72.9805C24.2851 73.3439 23.2935 73.6508 22.3387 74.0437C22.1178 74.1345 21.892 74.5053 21.8772 74.7582C21.8208 75.674 21.8772 76.5972 21.8478 77.518C21.8183 78.4756 21.3004 79.0084 20.4635 79.0035C19.6191 79.001 19.1332 78.4707 19.1184 77.4983C19.1037 76.5874 19.116 75.6765 19.116 74.7876H15.6577C15.6577 75.1854 15.6577 75.5169 15.6577 75.8483C15.6577 78.0557 15.6945 80.2655 15.6233 82.4729C15.6086 82.9099 15.2821 83.5213 14.9189 83.7104C14.5458 83.9068 13.834 83.8503 13.4953 83.5974C13.1566 83.3445 12.9479 82.7209 12.9381 82.2544C12.8841 79.8628 12.9234 77.4713 12.8989 75.0774C12.8964 74.795 12.759 74.3309 12.5724 74.2671C11.6054 73.9307 10.6015 73.695 9.49208 73.3954C9.49208 74.2082 9.52153 74.9374 9.48471 75.6666C9.43808 76.5727 8.92755 77.0613 8.11022 77.0564C7.29043 77.0515 6.79954 76.5555 6.77745 75.6421C6.75291 74.6305 6.79463 73.6164 6.75291 72.6073C6.74064 72.3077 6.63264 71.9173 6.42156 71.7405C5.61159 71.0481 4.74271 70.4269 3.75111 69.6658V69.6633ZM65.2302 79.3595C65.2891 79.3914 65.3456 79.4209 65.4045 79.4528C72.1469 69.2336 78.8917 59.0169 85.6611 48.7535C84.937 48.341 84.3602 48.012 83.7613 47.6707C83.5674 47.9997 83.4251 48.2698 83.2557 48.5227C82.7894 49.2225 82.134 49.3944 81.4345 49.0064C80.7375 48.6185 80.492 47.9482 80.8749 47.214C81.6235 45.7752 82.4016 44.3511 83.2091 42.9441C83.6116 42.2444 84.3504 42.0872 85.0278 42.4604C85.7004 42.8312 85.9139 43.5187 85.5776 44.27C85.4328 44.5917 85.2635 44.9035 85.0892 45.2497C85.7838 45.6499 86.4121 46.0109 87.1436 46.4307C87.5829 45.6549 88.0935 44.9551 88.4003 44.1743C89.4041 41.6281 87.4381 38.883 84.7186 38.9935C83.025 39.0622 81.8518 39.9191 81.1915 41.4857C76.6091 52.3408 72.0266 63.1959 67.4441 74.051C66.698 75.8164 65.9666 77.5892 65.2278 79.357L65.2302 79.3595ZM34.4612 66.96C34.1176 67.2325 33.8942 67.4216 33.6586 67.5934C32.0485 68.7548 30.4556 69.9432 28.8111 71.0555C28.3251 71.3845 28.114 71.6841 28.1165 72.2856C28.1435 77.3731 28.1312 82.4582 28.1312 87.5456C28.1312 87.8035 28.1312 88.0613 28.1312 88.6383C30.1954 87.2265 32.0215 85.9619 33.8648 84.7244C34.3802 84.3782 34.5299 83.9486 34.5275 83.3372C34.5054 78.2202 34.5152 73.1033 34.5128 67.9838C34.5128 67.6917 34.4833 67.3995 34.4612 66.9575V66.96ZM23.0186 63.0142C18.576 63.1861 10.8518 66.3952 9.19509 70.0856C9.26381 70.1421 9.32763 70.2108 9.40617 70.2526C9.59516 70.3533 9.78907 70.4441 9.98297 70.53C12.4914 71.63 15.1226 72.0597 17.847 72.0008C19.9701 71.9541 19.9039 71.9321 20.5469 69.9481C21.3078 67.6033 22.1963 65.2977 23.0186 63.0142ZM72.8734 73.6778C72.7654 73.6582 72.6549 73.641 72.5469 73.6213C70.711 76.3885 68.8775 79.1557 66.941 82.0776C68.8579 82.0776 70.5318 82.0997 72.2082 82.0653C72.8709 82.053 73.3471 81.6553 73.3152 80.9628C73.1974 78.532 73.0256 76.1062 72.8758 73.6778H72.8734Z" fill="#3A9C6F"/>
<path  id="onHover" d="M23.1989 70.6182C23.9574 67.7356 25.219 65.0617 26.6057 62.4345C28.0637 59.6722 29.6272 56.9517 30.847 54.0838C33.8365 47.064 33.2475 40.0122 30.6212 33.0194C29.0823 28.9214 26.9371 25.145 24.5194 21.5136C24.2126 21.0544 23.896 20.6026 23.5867 20.1459C22.0969 17.9287 22.3841 16.6986 24.7624 15.4243C27.2807 14.0738 30.0542 13.5508 32.8327 13.0843C34.46 12.8118 36.1069 12.6473 37.7391 12.3895C41.5411 11.7928 43.4015 9.76224 43.7402 5.88278C43.7795 5.42363 43.8752 4.95711 43.8237 4.50778C43.7059 3.48144 44.2287 3.1426 45.1344 3.14751C46.877 3.15733 48.6222 3.1647 50.3648 3.19417C51.0349 3.20399 51.4153 3.46916 51.3736 4.25733C51.3343 4.95465 51.4202 5.66916 51.5331 6.36403C52.1762 10.3442 54.1766 12.1071 58.3271 12.5319C61.7068 12.8756 65.0817 13.3495 68.2676 14.5993C69.3598 15.029 70.4128 15.6502 71.3455 16.3647C72.369 17.1504 72.531 18.1546 72.0008 19.3381C71.6915 20.033 71.2694 20.6812 70.8521 21.322C68.0639 25.6263 65.5554 30.0656 63.9232 34.9665C61.3927 42.556 61.9302 49.8754 65.6732 56.9492C66.6624 58.8178 67.6859 60.6666 68.6357 62.5548C68.8125 62.9035 68.8542 63.4559 68.7069 63.812C66.2967 69.6753 63.8422 75.5215 61.4098 81.3751C61.2331 81.7999 61.076 82.0921 60.5164 82.0921C52.9224 82.0724 45.3283 82.0773 37.7342 82.0749C37.6164 82.0749 37.4986 82.0405 37.29 82.0086C37.2728 81.6403 37.2433 81.2842 37.2433 80.9282C37.2409 75.497 37.2433 70.0633 37.2433 64.632C37.2433 64.3865 37.2433 64.141 37.2433 63.8954C37.2433 63.23 37.0249 62.6923 36.3646 62.4222C35.7019 62.1497 35.2184 62.4296 34.7128 62.8642C32.8327 64.4798 31.0066 66.1765 28.9988 67.6178C27.2512 68.8724 25.2877 69.8276 23.4223 70.9153C23.3487 70.8146 23.2726 70.7139 23.1989 70.6133V70.6182Z" fill="#3A9C6F"/>
<path  id="onHover" d="M6.80656 68.5287C4.45274 66.8173 3.59859 64.5093 3.57895 61.7691C3.56423 59.6722 3.73849 57.6245 4.67855 55.6381C4.67855 55.972 4.67855 56.3035 4.67855 56.6374C4.67855 57.4968 4.66382 58.3562 4.68346 59.2155C4.708 60.2885 5.15717 60.7943 6.05059 60.7993C6.95873 60.8042 7.40299 60.3155 7.4079 59.2303C7.42017 56.8363 7.48153 54.4423 7.38335 52.0533C7.33672 50.914 7.69507 50.116 8.56394 49.4604C9.1162 49.0455 9.63654 48.5888 10.3532 47.9995C10.3532 48.8687 10.3361 49.4997 10.3581 50.1307C10.3925 51.1399 10.93 51.6997 11.794 51.6629C12.6236 51.6285 13.0752 51.0981 13.0875 50.1037C13.0998 49.1535 13.139 48.1984 13.0752 47.2506C13.0286 46.5778 13.2888 46.2464 13.8877 46.0328C14.7418 45.7307 15.5788 45.3747 16.5532 44.9892C16.5532 47.4765 16.5532 49.7993 16.5532 52.1196C16.5532 53.6591 16.9434 54.2484 17.9473 54.2287C18.9168 54.2091 19.2973 53.6272 19.2973 52.154C19.2973 49.5488 19.2973 46.9437 19.2973 44.2379C20.3895 44.0194 21.4523 43.8082 22.6378 43.5725C22.6378 44.5841 22.6255 45.4975 22.6402 46.4084C22.6574 47.4372 23.1581 48.0118 24.0098 48.0167C24.8615 48.0191 25.3671 47.4397 25.3769 46.4232C25.3868 45.414 25.3769 44.4049 25.3769 43.2287C26.9257 43.1575 28.4303 43.0888 30.0109 43.0176C30.1926 45.031 29.9643 46.9093 29.5593 48.7656C28.7224 52.6131 26.9846 56.0923 25.0456 59.4734C24.8566 59.8048 24.1865 59.9522 23.7153 60.0135C19.8961 60.5144 16.2169 61.4696 12.7979 63.3013C10.4195 64.5731 8.33568 66.1986 6.79674 68.5312L6.80656 68.5287Z" fill="#3A9C6F"/>
<path  id="onHover" d="M3.75133 69.6607C4.74293 70.4218 5.61181 71.043 6.42178 71.7354C6.6304 71.9147 6.74085 72.3051 6.75313 72.6022C6.79485 73.6138 6.75313 74.6254 6.77767 75.637C6.79976 76.5504 7.29065 77.0464 8.11044 77.0513C8.92777 77.0562 9.4383 76.5676 9.48493 75.6615C9.52175 74.9348 9.49229 74.2031 9.49229 73.3903C10.5993 73.6923 11.6031 73.9256 12.5726 74.262C12.7567 74.3258 12.8966 74.7923 12.8991 75.0723C12.9236 77.4638 12.8843 79.8577 12.9383 82.2493C12.9482 82.7158 13.1568 83.3419 13.4955 83.5923C13.8342 83.8428 14.546 83.8993 14.9191 83.7053C15.2799 83.5162 15.6088 82.9048 15.6235 82.4678C15.6947 80.2629 15.6579 78.0531 15.6579 75.8432C15.6579 75.5118 15.6579 75.1803 15.6579 74.7825H19.1162C19.1162 75.6714 19.1039 76.5823 19.1187 77.4932C19.1358 78.4656 19.6194 78.9935 20.4637 78.9984C21.3007 79.0008 21.821 78.468 21.848 77.5129C21.875 76.5946 21.821 75.6714 21.8775 74.7531C21.8922 74.4977 22.118 74.1294 22.3389 74.0386C23.2937 73.6482 24.2853 73.3412 25.3382 72.9754C25.3554 73.2676 25.3849 73.5254 25.3849 73.7832C25.3873 78.8142 25.3701 83.8428 25.4045 88.8713C25.4094 89.576 25.1836 89.8633 24.5356 90.1088C19.4672 92.0093 14.4233 92.1615 9.48493 89.7798C8.15953 89.1414 6.94703 88.1814 5.84743 87.1894C4.38213 85.8685 3.68015 84.1693 3.72679 82.1068C3.81024 78.306 3.75133 74.5002 3.75133 70.6993C3.75133 70.3997 3.75133 70.1002 3.75133 69.6582V69.6607Z" fill="#3A9C6F"/>
<path  id="onHover" d="M65.2266 79.359C65.9654 77.5911 66.6992 75.8184 67.4429 74.053C72.0229 63.1978 76.6078 52.3427 81.1903 41.4876C81.8506 39.9211 83.0238 39.0642 84.7174 38.9954C87.4369 38.8849 89.4029 41.63 88.399 44.1762C88.0922 44.957 87.5817 45.6568 87.1424 46.4327C86.4109 46.0128 85.7826 45.6494 85.088 45.2517C85.2622 44.9055 85.4316 44.5936 85.5764 44.272C85.9102 43.5206 85.6967 42.8331 85.0266 42.4624C84.3516 42.0892 83.6104 42.2463 83.2079 42.9461C82.4004 44.353 81.6248 45.7796 80.8737 47.2159C80.4908 47.9501 80.7362 48.6204 81.4333 49.0083C82.1304 49.3963 82.7882 49.2269 83.2545 48.5246C83.4214 48.2717 83.5662 48.0017 83.7601 47.6726C84.359 48.0139 84.9358 48.3405 85.6599 48.7554C78.888 59.0164 72.1457 69.2356 65.4033 79.4547C65.3444 79.4228 65.2879 79.3934 65.229 79.3614L65.2266 79.359Z" fill="#3A9C6F"/>
<path  id="onHover" d="M34.46 66.9595C34.4821 67.399 34.5116 67.6936 34.5116 67.9858C34.514 73.1028 34.5042 78.2197 34.5263 83.3391C34.5287 83.9505 34.379 84.3802 33.8636 84.7264C32.0203 85.9639 30.1942 87.2284 28.13 88.6403C28.13 88.0632 28.13 87.8054 28.13 87.5476C28.13 82.4601 28.1423 77.3751 28.1153 72.2876C28.1128 71.6836 28.3214 71.3865 28.8099 71.0575C30.4543 69.9452 32.0473 68.7568 33.6574 67.5954C33.893 67.4235 34.1164 67.2345 34.46 66.9619V66.9595Z" fill="#3A9C6F"/>
<path  id="onHover" d="M72.8685 73.6781C73.0206 76.1064 73.19 78.5347 73.3078 80.9631C73.3422 81.6555 72.8635 82.0508 72.2008 82.0655C70.5269 82.0999 68.8505 82.0778 66.9336 82.0778C68.8702 79.1584 70.7036 76.3912 72.5396 73.6216C72.6476 73.6412 72.758 73.6584 72.866 73.6781H72.8685Z" fill="#3A9C6F"/>
</g>
<defs>
<clipPath id="clip0_233_15140">
<rect width="93.4999" height="94.2856" fill="#3A9C6F" transform="translate(0.857422)"/>
</clipPath>
</defs>
</svg>
