<svg  width="121"
                  height="121"
                  class="w-[72px] h-[72px] sm:w-[97px] sm:h-[97px]" viewBox="0 0 96 88" fill="none" xmlns="http://www.w3.org/2000/svg">
<g clip-path="url(#clip0_233_15148)">
<path   id="onHover"  d="M0.0722656 67.7694C0.31039 67.2338 0.501386 66.6679 0.799042 66.17C1.7689 64.5478 3.20013 63.6701 5.07785 63.6223C6.27839 63.5922 7.48142 63.6173 8.80847 63.6173C8.80847 62.9685 8.80599 62.3825 8.80847 61.799C8.83079 58.8741 10.6862 56.9553 13.5784 56.9452C19.4571 56.9251 25.3358 56.9376 31.217 56.9376C37.0659 56.9376 42.9149 56.9376 48.7613 56.9376C52.4523 56.9376 54.3672 58.8691 54.3994 62.6088C54.4019 62.9131 54.4267 63.2199 54.4416 63.5117C57.4727 63.9895 59.5092 62.2794 59.5142 59.2916C59.5216 52.2498 59.5216 45.208 59.5142 38.1662C59.5117 35.435 57.9291 33.8355 55.2403 33.8355C48.2156 33.8305 41.191 33.8481 34.1688 33.8254C31.9587 33.8179 30.4679 34.8088 29.6444 36.8836C29.3095 37.7261 28.9623 38.5686 28.5679 39.3834C27.8535 40.8622 26.6976 41.8833 25.1771 42.419C24.6413 42.6076 24.4701 42.8465 24.4627 43.4124C24.4106 47.3155 23.6962 48.0423 19.5712 48.3643C19.5712 49.3375 19.5787 50.3309 19.5712 51.3218C19.5613 52.4309 19.0528 53.0621 18.1871 53.0621C17.3165 53.0621 16.803 52.4334 16.7931 51.3268C16.7832 50.3586 16.7931 49.3903 16.7931 48.3039C16.297 48.3039 15.8753 48.319 15.4536 48.3014C13.3155 48.2134 11.9587 46.8075 11.9041 44.6396C11.9041 44.5466 11.8892 44.4485 11.9041 44.358C12.0802 43.2489 11.7627 42.6352 10.6142 42.1323C8.32478 41.1288 7.12671 39.1621 7.11679 36.6019C7.08702 29.2785 7.06966 21.9525 7.11679 14.629C7.15152 9.59159 10.9193 5.85943 15.9547 5.76889C17.8721 5.73368 19.792 5.76135 21.7094 5.76135C37.3661 5.76135 53.0253 5.76135 68.682 5.76135C69.0813 5.76135 69.4807 5.76135 70.0239 5.76135C70.0239 5.0119 70.014 4.33287 70.0239 3.65635C70.0636 1.40046 71.4129 0.0273096 73.6379 0.0147349C76.2375 -0.000354661 78.837 -0.00538452 81.4365 0.0147349C83.5474 0.0323394 84.9141 1.40801 84.9761 3.54067C84.996 4.22724 84.9786 4.91382 84.9786 5.76135C86.1196 5.76135 87.1862 5.76135 88.2528 5.76135C90.2323 5.76638 91.9537 6.4102 93.3279 7.89652C94.6252 9.29734 95.1485 10.9773 95.1461 12.8861C95.1337 25.0509 95.1386 37.2156 95.1386 49.3828C95.1386 51.1433 95.1436 52.9037 95.1386 54.6642C95.1337 55.7934 94.5681 56.4674 93.6727 56.4422C92.8219 56.4196 92.3307 55.7833 92.3307 54.6591C92.3357 40.827 92.3481 26.9974 92.3555 13.1653C92.3555 10.0921 90.8846 8.59064 87.8659 8.59064C70.6614 8.59064 53.4569 8.59064 36.2523 8.59064H35.1237C35.1237 10.2103 35.1237 11.7393 35.1237 13.2684C35.1237 13.5199 35.1312 13.7714 35.1237 14.0229C35.0865 15.1244 34.5607 15.7431 33.6776 15.718C32.8318 15.6953 32.3531 15.1093 32.3456 14.033C32.3332 12.275 32.3431 10.5171 32.3431 8.64597C31.9636 8.62585 31.6362 8.59316 31.3113 8.59316C26.2982 8.59064 21.2852 8.58561 16.2722 8.59316C12.3704 8.6007 9.89243 11.1131 9.88995 15.0766C9.88251 22.0858 9.88499 29.0974 9.88995 36.1065C9.88995 38.639 11.2319 39.9996 13.7322 40.0097C16.7038 40.0197 19.6729 40.0021 22.6445 40.0172C24.4552 40.0273 25.7203 39.2401 26.3826 37.5023C26.5165 37.1502 26.6877 36.8132 26.8117 36.4611C27.7518 33.7751 29.4211 31.8537 32.3431 31.1496C32.3431 30.7975 32.3431 30.463 32.3431 30.1285C32.3431 27.2062 32.3382 24.2813 32.3431 21.3589C32.3456 20.182 32.869 19.5105 33.7396 19.5281C34.6028 19.5432 35.1188 20.2272 35.1237 21.4017C35.1312 24.231 35.1262 27.0603 35.1262 29.8896C35.1262 30.2266 35.1262 30.5661 35.1262 31.0112H36.2995C42.58 31.0112 48.863 31.0087 55.1436 31.0112C59.4943 31.0112 62.2972 33.838 62.3022 38.2442C62.3096 45.2533 62.3121 52.2649 62.3022 59.274C62.2948 63.5695 59.4844 66.4265 55.2676 66.4466C52.9459 66.4567 50.6266 66.4466 48.3049 66.4466H47.3078C47.3078 66.8892 47.3078 67.2262 47.3078 67.5657C47.3078 70.1435 47.3351 72.7213 47.2979 75.2991C47.2582 78.0681 45.3755 80.0046 42.6693 80.0096C32.9211 80.0322 23.1753 80.0322 13.4271 80.0096C10.7457 80.0021 8.83823 77.9951 8.81839 75.2639C8.79854 72.3743 8.81343 69.4846 8.81343 66.507C7.39708 66.507 6.01298 66.4089 4.64873 66.5396C3.61437 66.6377 2.88263 67.6487 2.87519 68.7704C2.85287 72.2284 2.79086 75.689 2.89752 79.142C2.99922 82.4013 5.72029 85.0168 8.93497 85.1627C9.15077 85.1728 9.36905 85.1778 9.58485 85.1778C35.0196 85.1778 60.4567 85.1778 85.8914 85.1778C88.992 85.1778 91.3311 83.4651 92.0554 80.6308C92.2389 79.9115 92.2886 79.1394 92.2935 78.3925C92.3183 73.1112 92.3158 67.8298 92.3208 62.5485C92.3208 62.2341 92.3109 61.9197 92.3357 61.6054C92.4002 60.783 92.8938 60.3278 93.6578 60.2976C94.4218 60.2674 94.9402 60.7126 95.1064 61.4897C95.1634 61.7613 95.1361 62.053 95.1361 62.3347C95.1361 67.7418 95.1411 73.1489 95.1361 78.556C95.1312 84.1215 91.3485 87.9995 85.8766 87.9995C60.4716 88.0071 35.0667 88.0071 9.66175 87.9995C4.72066 87.9995 1.35963 85.2256 0.218613 80.2611C0.198769 80.1781 0.124355 80.1102 0.0747461 80.0348C0.0747461 75.948 0.0747461 71.8612 0.0747461 67.7745L0.0722656 67.7694ZM19.6704 77.1325C19.7572 77.1476 19.8465 77.1803 19.9358 77.1803C27.4814 77.1828 35.0245 77.1904 42.5701 77.1803C43.85 77.1803 44.49 76.4988 44.5098 75.1809C44.5346 73.6745 44.5098 72.1656 44.5197 70.6566C44.5445 67.0602 44.5768 63.4664 44.609 59.8198H19.6431C19.5166 60.6648 19.2215 61.3388 18.3161 61.4167C17.19 61.5123 16.8898 60.6648 16.6715 59.772C15.5355 59.772 14.454 59.7393 13.375 59.782C12.2935 59.8223 11.6139 60.4787 11.6089 61.5601C11.5866 66.1775 11.5841 70.7949 11.6089 75.4123C11.6139 76.4309 12.3059 77.1225 13.3155 77.1677C14.4515 77.218 15.5925 77.1803 16.7311 77.1803C16.8402 76.2573 17.1453 75.5733 18.1127 75.5029C18.9337 75.4425 19.3753 75.9178 19.6704 77.135V77.1325ZM82.1955 5.7186C82.1955 5.0798 82.1608 4.54664 82.203 4.02102C82.2774 3.11564 81.9028 2.80128 81.0198 2.82391C79.1049 2.87169 77.1875 2.81134 75.2726 2.84403C72.6259 2.8893 72.74 2.24045 72.8392 5.52746C72.8392 5.58027 72.8988 5.62806 72.9558 5.7186H82.198H82.1955ZM14.6822 42.8767C14.6822 43.3646 14.6797 43.767 14.6822 44.1668C14.6921 45.3514 14.8038 45.4696 15.9522 45.4746C17.1255 45.4796 18.2962 45.4746 19.4695 45.4746C21.8408 45.4746 21.8607 45.452 21.6523 43.0603C21.6474 43.0075 21.5903 42.9622 21.5333 42.8742H14.6847L14.6822 42.8767ZM51.5791 63.567C51.594 62.2819 51.8743 60.9867 50.6142 60.119C49.8999 59.6261 48.8606 59.6663 48.1759 60.2071C47.0275 61.1175 47.3326 62.3624 47.3202 63.567H51.5791Z" fill="#3A9C6F"/>
<path   id="onHover"  d="M88.6043 26.0753C88.6043 28.965 88.6092 31.8546 88.6043 34.7468C88.5968 37.5334 87.0292 39.1278 84.2882 39.1329C79.7416 39.1404 75.1973 39.1429 70.6506 39.1329C67.9742 39.1278 66.4041 37.5183 66.3991 34.7795C66.3917 28.9675 66.3892 23.1555 66.3991 17.3435C66.4041 14.6148 67.9717 13.0078 70.6655 12.9952C75.2122 12.9776 79.7564 12.9801 84.3031 12.9952C87.044 13.0052 88.5968 14.6098 88.6043 17.4064C88.6117 20.296 88.6043 23.1857 88.6043 26.0779V26.0753ZM85.8212 26.0401C85.8212 23.2133 85.8212 20.3866 85.8212 17.5598C85.8212 16.1439 85.5161 15.822 84.1518 15.8195C79.7316 15.8144 75.309 15.8144 70.8888 15.8195C69.4972 15.8195 69.1847 16.1338 69.1822 17.5221C69.1797 23.2058 69.1797 28.8921 69.1822 34.5758C69.1822 35.9917 69.4848 36.3036 70.8516 36.3036C75.2718 36.3061 79.6944 36.3061 84.1146 36.3036C85.5384 36.3036 85.8212 36.0043 85.8212 34.518C85.8237 31.6912 85.8212 28.8644 85.8212 26.0376V26.0401Z" fill="#3A9C6F"/>
<path    id="onHover" d="M85.4658 58.3512C85.4583 62.7876 81.8567 66.4392 77.4886 66.4342C73.1279 66.4292 69.5238 62.7599 69.5313 58.3311C69.5362 53.8998 73.1478 50.2406 77.5109 50.2456C81.8765 50.2532 85.4732 53.9149 85.4683 58.3512H85.4658ZM82.6827 58.2934C82.6579 55.4037 80.2692 53.0322 77.4291 53.0749C74.6212 53.1177 72.3143 55.4918 72.3143 58.3412C72.3143 61.2308 74.6757 63.62 77.5208 63.6049C80.3659 63.5923 82.7075 61.1805 82.6802 58.2934H82.6827Z" fill="#3A9C6F"/>
<path   id="onHover"  d="M19.5653 68.4367C19.5653 69.0629 19.5951 69.6891 19.5579 70.3128C19.5082 71.1125 18.9129 71.6834 18.1911 71.6885C17.4743 71.6935 16.8368 71.1226 16.8095 70.3279C16.7648 69.078 16.7624 67.8255 16.812 66.5781C16.8442 65.7708 17.4668 65.2578 18.2234 65.2779C18.9774 65.298 19.5182 65.8312 19.5628 66.6586C19.5951 67.2496 19.5703 67.8457 19.5653 68.4392V68.4367Z" fill="#3A9C6F"/>
<path   id="onHover"  d="M77.4949 27.5488C78.7327 27.5488 79.9704 27.5362 81.2082 27.5538C82.188 27.5664 82.761 28.0719 82.7932 28.8943C82.8254 29.7368 82.2078 30.358 81.2206 30.368C78.7451 30.3932 76.2696 30.3932 73.7941 30.368C72.7969 30.358 72.1892 29.7544 72.2115 28.9043C72.2339 28.0845 72.8118 27.5689 73.7817 27.5538C75.0194 27.5362 76.2572 27.5488 77.4949 27.5488Z" fill="#3A9C6F"/>
<path    id="onHover" d="M77.4566 24.5881C76.2238 24.5881 74.9885 24.6006 73.7557 24.583C72.8082 24.5705 72.2228 24.0348 72.2055 23.2124C72.1881 22.3951 72.7784 21.7789 73.7012 21.7713C76.2288 21.7462 78.7588 21.7487 81.2864 21.7713C82.2067 21.7789 82.8045 22.3951 82.7921 23.2049C82.7797 24.0247 82.1918 24.5705 81.2468 24.583C79.9817 24.6006 78.7192 24.5881 77.4541 24.5881H77.4566Z" fill="#3A9C6F"/>
</g>
<defs>
<clipPath id="clip0_233_15148">
<rect width="95.0713" height="87.9999" fill="white" transform="translate(0.0722656)"/>
</clipPath>
</defs>
</svg>
