<svg  width="121"
                  height="121"
                  class="w-[72px] h-[72px] sm:w-[97px] sm:h-[97px]" viewBox="0 0 104 103" fill="none" xmlns="http://www.w3.org/2000/svg">
<g clip-path="url(#clip0_233_15155)">
<path   id="onHover" d="M103.643 68.3509V69.7582C103.167 70.0905 102.73 70.6132 102.208 70.7204C99.6538 71.2485 97.0777 71.6747 94.5043 72.1143C93.5077 72.2831 92.8362 71.8114 92.5541 70.8277C92.4735 70.5462 92.3876 70.2701 92.315 70.0342C91.3399 69.9485 90.9746 70.4872 90.5072 71.1949C89.2554 73.0819 87.8075 74.8349 86.4752 76.6683C86.1689 77.0918 85.8573 77.6145 85.817 78.1131C85.5968 80.8632 83.7997 83.1791 81.1054 83.8384C80.09 84.0877 78.9994 84.0368 77.8604 84.1306C77.7234 86.0525 76.9605 87.7492 75.3676 89.0063C73.7505 90.2822 71.8782 90.5556 69.8689 90.2366C69.7211 92.3568 68.9475 94.0455 67.3411 95.2946C65.7186 96.5544 63.8625 96.8787 61.8397 96.4847C61.7054 98.5084 61.0795 100.245 59.4973 101.393C58.5733 102.063 57.4289 102.427 56.3867 102.931H54.3747C53.5473 102.585 52.6824 102.304 51.9033 101.87C51.3876 101.58 50.9927 101.521 50.4205 101.709C46.9392 102.853 43.3665 100.958 42.3081 97.4577C42.2356 97.2218 42.1389 96.9913 42.0449 96.7286C40.0248 97.9295 37.986 98.1198 35.9095 97.2111C33.8465 96.3078 32.7021 94.6084 32.1864 92.4346C29.4679 93.9195 26.8838 93.9276 24.579 91.9896C21.9196 89.7515 21.6241 86.9102 23.0263 83.8411C19.7035 82.1123 19.0131 81.1446 18.4866 77.6386C18.4382 77.3196 18.1508 77.0248 17.9413 76.7434C16.5444 74.8751 15.0751 73.0551 13.7722 71.1225C13.2941 70.4149 12.8992 69.9324 11.9832 70.0584C11.9483 70.1763 11.908 70.2996 11.8731 70.4229C11.4675 71.9856 10.9705 72.2992 9.34533 72.0124C7.03786 71.6077 4.7277 71.2083 2.42291 70.7928C0.93742 70.5248 0.52374 69.8841 0.786991 68.3938C1.90178 62.1002 3.00313 55.8038 4.11255 49.5102C4.99363 44.5005 5.87472 39.4908 6.76655 34.4837C7.01637 33.0765 7.58585 32.5699 8.86181 32.7709C11.4406 33.1784 14.0113 33.6394 16.574 34.1353C17.6753 34.347 18.0944 35.0922 17.9064 36.226C17.815 36.7755 17.7156 37.3223 17.6216 37.8611C21.2642 38.767 23.1096 38.8421 24.8127 38.1613C24.8127 37.8128 24.8127 37.4456 24.8127 37.0784C24.8127 29.6402 24.8046 22.202 24.8154 14.7665C24.8207 10.8048 27.5607 8.06006 31.5041 8.04666C34.7893 8.03593 38.0719 8.04666 41.3572 8.04666C41.7145 8.04666 42.0717 8.04666 42.5123 8.04666C42.5123 6.86995 42.48 5.80314 42.5176 4.73901C42.6117 2.22745 44.1213 0.830943 46.3294 0.00537109H57.993C62.0439 1.31878 62.017 4.65591 61.7833 8.04666C65.4823 8.04666 69.0012 8.04666 72.5175 8.04666C76.8719 8.04666 79.5071 10.6949 79.5098 15.0721C79.5125 22.4084 79.5098 29.7474 79.5098 37.0837V38.2042C82.0375 39.0914 84.3423 38.3462 86.7008 37.9039C86.6175 37.3652 86.5611 36.9363 86.4832 36.5101C86.2039 34.9608 86.631 34.3041 88.1487 34.0307C90.4884 33.6099 92.8281 33.1918 95.1705 32.8004C96.6587 32.5511 97.298 33.0095 97.5613 34.4971C99.1945 43.758 100.814 53.0189 102.456 62.2798C102.816 64.3115 103.245 66.3299 103.643 68.3563V68.3509ZM47.9841 40.4396C45.6659 39.2549 43.4471 38.7483 41.102 39.0887C36.1325 39.8124 31.1683 40.5629 26.2149 41.3724C23.6898 41.7852 21.1916 42.1069 18.6693 41.3965C18.1669 41.2545 17.6324 41.2277 17.0306 41.1339C15.5183 49.7112 14.0194 58.1975 12.5151 66.732C12.8536 66.815 13.1034 66.9223 13.3586 66.9303C14.8951 66.9893 15.8299 67.6942 16.4048 69.1872C17.0897 70.9644 18.2395 72.5002 19.5047 73.7466C22.1721 71.5085 24.681 69.2274 27.3727 67.193C31.0018 64.4482 36.3205 66.48 37.2661 70.9241C37.5078 72.0607 37.3037 73.291 37.3037 74.5266C40.4868 75.3361 42.2168 77.4617 42.5123 80.8015C46.3993 80.5898 48.833 82.3803 49.8725 86.0659C50.0284 86.0042 50.1224 85.9748 50.211 85.9319C54.6917 83.7017 59.2529 86.1838 59.8116 91.1346C59.8492 91.4669 60.1286 91.8208 60.3918 92.0647C60.7303 92.381 61.1547 92.6061 61.555 92.8527C63.1721 93.8472 65.0793 93.4719 66.0679 91.9735C67.0671 90.4564 66.6749 88.5828 65.0928 87.4838C63.9914 86.7199 62.8632 86.0016 61.7457 85.2618C60.2387 84.262 58.7291 83.2675 57.2275 82.2624C56.5801 81.8308 56.1691 81.1768 56.5129 80.4718C56.7574 79.9733 57.3322 79.4827 57.8587 79.33C58.2643 79.212 58.8822 79.539 59.3093 79.8151C62.6778 82.005 66.0168 84.2405 69.3746 86.4465C71.1314 87.6018 73.1058 87.2694 74.1292 85.6772C75.1339 84.1119 74.6531 82.2409 72.9231 81.0857C71.0293 79.8205 69.1248 78.5741 67.2256 77.317C65.6354 76.2636 64.0048 75.2611 62.4817 74.1165C62.0627 73.8002 61.7296 73.0283 61.7887 72.519C61.8451 72.0553 62.4253 71.4334 62.8954 71.3048C63.3736 71.1707 64.0774 71.4227 64.5421 71.7229C67.6124 73.6957 70.6452 75.7275 73.6887 77.7405C75.0291 78.6277 76.3508 79.5444 77.7207 80.3861C78.9134 81.1178 80.1625 81.0883 81.3069 80.2708C82.4216 79.472 82.8031 78.3409 82.5506 76.998C82.3545 75.966 81.6829 75.3093 80.8395 74.7545C75.2763 71.085 69.7292 67.3967 64.1633 63.7326C63.755 63.4645 63.2715 63.2769 62.796 63.1509C58.3933 61.9796 55.2799 59.3313 53.5043 55.1284C53.3915 54.8603 53.2599 54.6003 53.1283 54.3135C51.3688 54.67 49.6603 54.9783 47.9707 55.383C47.5731 55.4768 47.1541 55.8146 46.9069 56.1577C46.0635 57.3236 45.3301 58.5674 44.4866 59.7334C42.4962 62.4835 39.7696 63.6763 36.4333 63.1027C31.2704 62.2154 29.9998 57.7847 32.5168 54.4476C34.467 51.8583 36.1459 49.0626 37.9296 46.35C38.9342 44.8195 40.2639 43.7098 41.9643 43.0128C43.9118 42.2141 45.8405 41.3671 47.9976 40.4477L47.9841 40.4396ZM87.3025 41.1526C86.8674 41.2143 86.5101 41.2652 86.1555 41.3161C84.7345 41.5172 83.2759 42.0398 81.9032 41.8656C76.6247 41.1982 71.3678 40.3431 66.1135 39.4934C63.1748 39.0163 60.2898 38.6705 57.4289 39.9169C52.6743 41.9889 47.874 43.9483 43.1382 46.0605C42.2114 46.4733 41.3035 47.2292 40.7152 48.0574C38.7005 50.896 36.8201 53.8311 34.9075 56.7393C34.1178 57.9401 34.4025 58.8676 35.7 59.5162C37.8248 60.5804 40.3687 59.9719 41.7762 57.9884C42.8212 56.5142 43.7452 54.9515 44.8144 53.496C45.1555 53.0323 45.7465 52.5981 46.2972 52.4667C48.7363 51.8824 51.2022 51.3972 53.6628 50.904C55.0462 50.6253 55.6291 51.0434 56.024 52.515C57.5015 58.0179 62.8014 61.2719 68.4049 60.1997C70.7929 59.7414 72.7109 58.428 74.6638 57.1333C75.7302 56.4284 76.6704 56.5115 77.2372 57.3183C77.8255 58.1573 77.522 59.0874 76.4179 59.8299C74.2877 61.2666 72.1575 62.7033 69.3827 63.2313C69.7749 63.5342 69.9898 63.7218 70.2288 63.88C73.9681 66.3594 77.7207 68.82 81.4492 71.3155C82.5774 72.0714 83.6466 72.9211 84.9198 73.8565C85.7472 72.645 86.8727 71.4254 87.4879 69.986C88.3018 68.0802 89.3548 66.8043 91.5495 66.8177C91.6032 66.8177 91.6569 66.748 91.7912 66.6515C90.3031 58.2055 88.8095 49.7166 87.3025 41.1473V41.1526ZM71.4618 24.0542C74.0594 24.1239 76.1976 22.068 76.2782 19.4706C76.3239 17.9991 76.2917 16.5249 76.2917 15.0506C76.2917 12.4747 75.064 11.2605 72.4665 11.2605C58.9359 11.2605 45.4053 11.2605 31.8748 11.2605C31.6062 11.2605 31.3375 11.2498 31.0716 11.2685C29.4088 11.3757 28.0926 12.6543 28.0442 14.3189C27.9932 16.0906 27.9717 17.8704 28.0523 19.6395C28.1651 22.1752 30.529 24.2981 32.8553 23.9898C32.8553 23.5342 32.8365 23.0678 32.8579 22.6041C32.909 21.5399 33.4973 20.9342 34.5744 20.9208C36.6509 20.894 38.7274 20.894 40.8038 20.9208C41.8676 20.9342 42.4505 21.556 42.4988 22.6282C42.5203 23.1133 42.5015 23.5985 42.5015 24.081H61.8129C61.8129 23.5449 61.7914 23.0517 61.8182 22.5585C61.8746 21.5507 62.4629 20.9368 63.4756 20.9208C65.5843 20.8913 67.6957 20.8913 69.8044 20.9208C70.8117 20.9368 71.3973 21.5587 71.4511 22.5692C71.4779 23.0624 71.4564 23.561 71.4564 24.0515L71.4618 24.0542ZM71.4618 27.4717C71.4618 27.9328 71.4806 28.3991 71.4591 28.8629C71.4081 29.9243 70.8144 30.5355 69.7426 30.5489C67.6662 30.5757 65.5897 30.5757 63.5132 30.5489C62.4495 30.5328 61.8666 29.9109 61.8209 28.8387C61.7994 28.3536 61.8182 27.8684 61.8182 27.3913H42.5069C42.5069 27.8979 42.523 28.3589 42.5042 28.8173C42.4612 29.8975 41.8837 30.5328 40.8307 30.5489C38.722 30.5783 36.6106 30.581 34.4992 30.5489C33.4946 30.5328 32.9144 29.9029 32.8633 28.8897C32.8391 28.3965 32.8579 27.9033 32.8579 27.6406C31.1388 27.0589 29.5888 26.5336 28.0845 26.0243V37.8209C31.453 37.3035 34.7705 36.8693 38.0585 36.2689C41.6607 35.6122 45.2576 35.3951 48.5482 37.1936C51.1324 38.6062 53.3888 38.5178 55.9193 37.1213C58.1488 35.8883 60.6927 35.5773 63.2393 35.8534C65.168 36.0625 67.0806 36.4056 69.0012 36.6951C71.4054 37.0569 73.8069 37.4268 76.246 37.7967V25.8608C75.4724 26.228 74.7793 26.6381 74.0352 26.8901C73.2508 27.1554 72.4154 27.268 71.4672 27.4771L71.4618 27.4717ZM9.73484 36.1536C7.86522 46.7762 6.01172 57.2861 4.15284 67.847C5.82368 68.1365 7.32528 68.3938 8.90479 68.6672C10.7717 58.0795 12.6199 47.591 14.4868 37.014C12.8912 36.7246 11.3842 36.4538 9.73484 36.1563V36.1536ZM89.8303 37.006C91.7026 47.6178 93.5534 58.1063 95.4176 68.6806C97.0482 68.3911 98.5713 68.1177 100.167 67.8336C98.2946 57.2111 96.4438 46.7226 94.5822 36.1617C92.9759 36.4458 91.4716 36.7138 89.8303 37.006ZM39.407 81.0508C39.321 80.9999 39.2351 80.9463 39.1518 80.8953C39.133 79.6087 38.5635 78.6197 37.4138 78.0621C36.205 77.4751 34.9881 77.5636 33.9271 78.4374C31.4745 80.4611 29.0301 82.4956 26.6151 84.5675C25.1726 85.8032 25.0329 87.7653 26.2095 89.1403C27.3565 90.4806 29.2772 90.6709 30.7116 89.4968C33.1749 87.4838 35.6355 85.4655 38.0021 83.3453C38.6414 82.7716 38.9476 81.8281 39.407 81.0535V81.0508ZM21.4602 77.459C21.5435 77.51 21.6268 77.5636 21.7101 77.6145C21.7423 78.8984 22.3198 79.8607 23.4615 80.4423C24.6891 81.0696 25.8872 80.9248 26.9375 80.0644C29.0354 78.3463 31.1253 76.612 33.1695 74.8322C34.5503 73.6314 34.6523 71.672 33.5053 70.3264C32.369 68.9942 30.4323 68.8066 28.9978 69.9726C26.9187 71.6613 24.8368 73.3553 22.8598 75.1592C22.2231 75.7409 21.9169 76.679 21.4576 77.4564L21.4602 77.459ZM56.6231 91.9762C56.5371 90.1964 55.9649 89.1993 54.7722 88.6177C53.5339 88.0146 52.3519 88.2022 51.3016 89.0572C49.6684 90.3894 48.054 91.743 46.4557 93.1154C45.0454 94.327 44.8681 96.34 46.0097 97.6909C47.138 99.0284 49.0774 99.2348 50.5065 98.0876C52.2015 96.7286 53.8992 95.3589 55.4814 93.874C56.0885 93.303 56.3813 92.3971 56.6231 91.9762ZM38.6575 94.6781C39.2592 94.4235 39.9523 94.2841 40.4466 93.8954C42.2302 92.4882 43.9816 91.0381 45.674 89.521C46.9419 88.3818 46.9929 86.4572 45.9184 85.1653C44.852 83.8813 42.934 83.5865 41.5936 84.6345C39.7804 86.0552 38.0209 87.5508 36.2963 89.0787C35.3024 89.9579 35.0848 91.3812 35.5925 92.5847C36.1056 93.8043 37.2446 94.5414 38.6575 94.6781ZM45.7304 7.9716H58.5921C58.5921 6.86995 58.627 5.8353 58.5813 4.80334C58.541 3.85715 57.9286 3.23797 56.9696 3.22993C53.7595 3.20312 50.5468 3.20312 47.3367 3.22993C46.3778 3.23797 45.776 3.85983 45.7384 4.81406C45.6981 5.84334 45.7304 6.87799 45.7304 7.96892V7.9716ZM39.2189 27.2975V24.2043H36.1271V27.2975H39.2189ZM65.0739 27.268H68.1685V24.1775H65.0739V27.268ZM54.0899 99.326C55.425 99.9157 56.5881 99.7361 57.531 98.881C58.4578 98.0394 58.7801 96.8546 58.3637 95.702C56.9615 96.8921 55.57 98.0715 54.0899 99.3287V99.326Z" fill="#3A9C6F"/>
</g>
<defs>
<clipPath id="clip0_233_15155">
<rect width="102.928" height="102.928" fill="white" transform="translate(0.714844)"/>
</clipPath>
</defs>
</svg>
