<svg width="110" height="102" viewBox="0 0 110 102" fill="none" xmlns="http://www.w3.org/2000/svg">
<path d="M89.1406 55.1252C89.1406 45.5248 89.1406 35.9244 89.1406 26.3211C89.1406 24.1123 89.6115 23.6566 91.8917 23.6536C95.771 23.6536 99.6473 23.6507 103.527 23.6536C105.484 23.6536 106.011 24.1854 106.011 26.1341C106.011 45.4459 106.011 64.7578 106.011 84.0696C106.011 86.0476 105.522 86.5355 103.544 86.5355C99.517 86.5355 95.4926 86.5413 91.4652 86.5355C89.7033 86.5355 89.1406 85.9833 89.1406 84.2566C89.1406 74.5452 89.1406 64.8367 89.1406 55.1252ZM102.392 82.9916V27.2472H92.7593V82.9916H102.392Z" fill="white"/>
<path d="M66.0297 33.926C62.0735 32.6609 58.1467 31.3988 54.2082 30.1688C53.9802 30.0986 53.5716 30.2301 53.3939 30.4113C50.4533 33.3855 47.6193 33.8032 43.9592 31.6968C41.7826 33.3679 39.5705 35.0625 37.3613 36.7628C33.2215 39.9474 31.8738 41.6337 27.728 44.8124C27.3549 45.0987 26.9492 45.4084 26.508 45.534C25.6788 45.7678 24.9592 45.4902 24.5269 44.7218C24.0708 43.9096 24.2367 43.1442 24.9355 42.554C25.8061 41.8207 26.7271 41.1458 27.6303 40.4504C32.9932 36.3222 35.5639 33.6893 40.9445 29.5815C41.5487 29.1199 41.7204 28.7518 41.519 27.9629C40.5211 24.086 43.0797 20.3229 47.0419 19.7065C50.9064 19.1046 54.4777 21.9503 54.759 25.9061C54.8005 26.4817 54.9959 26.7242 55.526 26.8907C59.1802 28.0418 62.8227 29.2338 66.4858 30.3616C66.7878 30.4551 67.3327 30.2827 67.5548 30.0431C69.7876 27.624 72.4234 27.0017 75.586 28.1616C75.8525 28.261 76.3382 28.22 76.5159 28.0448C81.8876 22.7157 87.2357 17.3604 92.5868 12.008C92.6045 11.9905 92.5956 11.9438 92.6164 11.7772C91.7043 11.8503 90.8159 11.9438 89.9216 11.9847C88.6423 12.0431 87.8754 11.4675 87.7895 10.4333C87.6977 9.32891 88.4025 8.60435 89.6906 8.49041C92.0448 8.28005 94.3991 8.0697 96.7533 7.86518C98.7462 7.69281 99.5191 8.46704 99.2911 10.3953C99.0157 12.7151 98.7492 15.0377 98.4738 17.3575C98.3198 18.6605 97.615 19.3354 96.5134 19.239C95.4355 19.1455 94.8285 18.2953 94.941 17.0186C95.0032 16.3291 95.0861 15.6396 95.1512 14.9501C95.1572 14.8917 95.1009 14.8303 95.0298 14.6755C94.7988 14.88 94.5827 15.0553 94.3872 15.2481C89.3649 20.2528 84.3455 25.2634 79.3143 30.2593C78.8878 30.683 78.7013 30.9868 78.9826 31.6471C80.1316 34.3379 79.6607 36.8388 77.6115 38.9161C75.6245 40.9291 73.1577 41.4842 70.4866 40.4967C67.7326 39.477 66.2726 37.4173 66.0682 34.5074C66.0593 34.3613 66.0475 34.2181 66.0268 33.926H66.0297ZM48.0458 29.5056C49.8137 29.5056 51.2677 28.0301 51.2381 26.2655C51.2114 24.5447 49.7781 23.1569 48.0369 23.1598C46.3016 23.1598 44.8565 24.5622 44.8239 26.2743C44.7914 28.0009 46.2927 29.5085 48.0458 29.5056ZM72.8231 31.0774C71.0967 31.0715 69.6485 32.4798 69.6189 34.1947C69.5893 35.9711 71.0167 37.4173 72.8054 37.4202C74.5407 37.4202 75.9917 36.0295 76.0332 34.3204C76.0776 32.6025 74.5733 31.0832 72.8202 31.0774H72.8231Z" fill="white"/>
<path d="M39.6072 63.6557C39.6072 56.9389 39.6072 50.2192 39.6072 43.5024C39.6072 41.466 40.1166 40.9577 42.1362 40.9547C46.125 40.9547 50.1139 40.9489 54.1057 40.9547C55.9032 40.9547 56.4984 41.5449 56.4984 43.33C56.5014 56.9476 56.5014 70.5653 56.4984 84.1829C56.4984 85.9768 55.9298 86.5319 54.1116 86.5348C50.0487 86.5377 45.9858 86.5407 41.92 86.5348C40.1521 86.5348 39.6102 86.0031 39.6072 84.2443C39.6013 77.3814 39.6043 70.5156 39.6043 63.6527L39.6072 63.6557ZM52.8975 44.5337H43.2141V82.9646H52.8975V44.5337Z" fill="white"/>
<path d="M81.2472 66.4345C81.2472 72.3098 81.2472 78.1852 81.2472 84.0635C81.2472 86.0502 80.7556 86.5381 78.7864 86.5381C74.762 86.5381 70.7376 86.541 66.7102 86.5381C64.9512 86.5381 64.356 85.9713 64.356 84.268C64.3501 72.4442 64.3501 60.6176 64.356 48.7938C64.356 47.0321 64.9601 46.4536 66.7813 46.4507C70.8057 46.4448 74.8301 46.4448 78.8574 46.4507C80.6786 46.4536 81.2442 47.0087 81.2472 48.8084C81.2531 54.6838 81.2472 60.5591 81.2501 66.4374L81.2472 66.4345ZM67.9569 82.965H77.6403V50.0267H67.9569V82.965Z" fill="white"/>
<path d="M14.8372 71.8742C14.8372 67.7489 14.8313 63.6236 14.8372 59.4982C14.8372 57.8914 15.4117 57.3158 17.0286 57.3129C21.2011 57.3041 25.3765 57.3012 29.5489 57.3129C31.0858 57.3158 31.7018 57.9264 31.7018 59.4369C31.7077 67.7606 31.7077 76.0842 31.7018 84.405C31.7018 85.9213 31.0888 86.529 29.5548 86.5319C25.3439 86.5407 21.1329 86.5436 16.922 86.5319C15.4473 86.529 14.8402 85.9242 14.8343 84.4663C14.8224 80.268 14.8313 76.0696 14.8313 71.8713L14.8372 71.8742ZM28.0979 82.9851V60.8948H18.453V82.9851H28.0979Z" fill="white"/>
<path d="M28.6013 47.6458C28.6013 51.4624 25.4822 54.5563 21.6346 54.5563C17.7871 54.5563 14.668 51.4624 14.668 47.6458C14.668 43.8293 17.7871 40.7354 21.6346 40.7354C25.4822 40.7354 28.6013 43.8293 28.6013 47.6458ZM18.3485 47.6458C18.3485 49.4461 19.8197 50.9055 21.6346 50.9055C23.4495 50.9055 24.9208 49.4461 24.9208 47.6458C24.9208 45.8456 23.4495 44.3862 21.6346 44.3862C19.8197 44.3862 18.3485 45.8456 18.3485 47.6458Z" fill="white"/>
</svg>
