<svg width="94" height="95" viewBox="0 0 94 95" fill="none" xmlns="http://www.w3.org/2000/svg">
<g clip-path="url(#clip0_233_15074)">
<path d="M49.1992 0C51.1296 0.425521 53.1335 0.648177 54.983 1.30872C65.1672 4.94544 71.2453 12.1743 72.8862 22.988C73.8453 29.304 72.4251 35.2044 69.077 40.6249C67.7034 42.849 66.3151 45.0632 64.8949 47.3466C65.1941 47.5396 65.4345 47.7103 65.6896 47.8563C70.0826 50.3574 74.4683 52.871 78.8785 55.3424C79.6511 55.7754 80.1172 56.3419 80.4287 57.1732C84.8193 68.9245 89.2368 80.6659 93.6495 92.4073C93.7451 92.6621 93.8849 92.8996 94.0051 93.1445V95H92.168C92.1287 94.9555 92.0993 94.8936 92.0502 94.8664C84.8389 90.7621 77.6251 86.6628 70.4236 82.5436C69.9575 82.2764 69.6215 82.316 69.18 82.5684C62.1894 86.5638 55.189 90.5419 48.1935 94.5299C47.9654 94.6611 47.7643 94.8417 47.5533 95H46.452C46.3441 94.9035 46.2509 94.7823 46.1307 94.713C39.0028 90.6508 31.8699 86.596 24.7493 82.5189C24.3054 82.2641 23.9963 82.3185 23.5891 82.5535C20.5648 84.2952 17.5257 86.0121 14.4965 87.7439C10.2752 90.1585 6.05873 92.5805 1.83985 95H0.922493C-0.0905281 94.1935 -0.183736 93.862 0.277397 92.63C4.72684 80.7747 9.18364 68.9195 13.6233 57.0594C13.898 56.3271 14.3101 55.8199 15.0018 55.4315C19.434 52.9427 23.8442 50.4118 28.2618 47.8934C28.5242 47.7424 28.7818 47.5816 29.1252 47.3738C28.848 46.9236 28.5929 46.5104 28.3378 46.0997C27.1825 44.2443 26.0125 42.3962 24.8695 40.5333C14.8055 24.126 24.5629 2.99102 43.4571 0.232552C43.906 0.168229 44.3475 0.0791667 44.7939 0C46.2631 0 47.7324 0 49.1992 0ZM23.594 26.3897C23.5965 31.0556 24.8622 35.338 27.3297 39.2815C33.3907 48.9695 39.432 58.6699 45.4832 68.3654C46.5035 70.0031 47.4798 70.0105 48.4928 68.3901C54.5464 58.6971 60.5951 48.9992 66.6487 39.3087C69.7589 34.3311 70.9092 28.9354 70.1611 23.0944C68.5251 10.3312 56.1603 0.979688 43.5822 3.02812C31.9705 4.91823 23.7167 14.5667 23.594 26.3897ZM45.4562 91.1109C45.5347 90.9798 45.5911 90.9303 45.5911 90.8809C45.6033 84.79 45.6156 78.6991 45.5984 72.6082C45.5984 72.3781 45.3335 72.1184 45.1422 71.9204C44.5339 71.2871 43.7662 70.7651 43.305 70.0402C39.6258 64.2388 36.0054 58.4003 32.3654 52.5741C32.1937 52.2995 32.0195 52.0298 31.7399 51.587C31.6418 51.963 31.5903 52.1263 31.556 52.2945C30.8937 55.4043 30.2437 58.5165 29.5716 61.6214C29.3631 62.5862 28.6641 63.0711 27.8693 62.8707C27.1041 62.6777 26.7116 61.9628 26.8956 61.0499C27.1335 59.8698 27.391 58.6947 27.6388 57.5171C28.1048 55.2905 28.5684 53.0615 29.0565 50.7236C28.8014 50.82 28.6567 50.8547 28.5341 50.924C24.5924 53.1654 20.6482 55.4018 16.7237 57.6754C16.3974 57.8634 16.1252 58.279 15.9854 58.6501C12.1197 68.8874 8.27119 79.132 4.42514 89.3767C4.31476 89.6686 4.24363 89.9754 4.13571 90.3391C4.31722 90.2896 4.38099 90.2846 4.43005 90.2574C10.4493 86.8335 16.471 83.4169 22.4731 79.9633C22.7797 79.7876 23.025 79.3225 23.1059 78.949C23.9767 74.9684 24.8008 70.9803 25.652 66.9973C25.885 65.9087 26.4908 65.4486 27.3493 65.6366C28.198 65.8246 28.5439 66.5124 28.3158 67.5984C27.5259 71.3737 26.741 75.1514 25.9242 78.9217C25.7771 79.6021 25.8458 79.993 26.535 80.3789C32.5469 83.7534 38.5294 87.1798 44.5216 90.5914C44.8307 90.7671 45.1471 90.9353 45.4562 91.106V91.1109ZM62.2777 51.5499C61.9687 52.0348 61.7921 52.3069 61.6204 52.5815C58.0147 58.3582 54.4237 64.1398 50.7911 69.8992C50.3594 70.5845 49.7879 71.2475 49.133 71.7052C48.5884 72.0862 48.3554 72.4078 48.3579 73.0832C48.3849 78.7733 48.3726 84.4634 48.375 90.1535C48.375 90.4504 48.402 90.7448 48.4241 91.148C48.792 90.9625 49.0643 90.8388 49.3218 90.6928C55.3141 87.2837 61.2966 83.8548 67.3085 80.4828C68.0639 80.0573 68.2258 79.6615 68.0468 78.8327C66.5089 71.6829 65.0175 64.5208 63.5115 57.3637C63.1215 55.5082 62.7217 53.6527 62.2753 51.5523L62.2777 51.5499ZM64.9807 50.6493C65.0053 50.9685 64.9979 51.0922 65.0249 51.2109C66.9798 60.5105 68.9298 69.8126 70.9141 79.1073C70.9902 79.4611 71.3287 79.8569 71.6525 80.0424C77.4706 83.3848 83.3034 86.6999 89.1338 90.0174C89.3349 90.1312 89.5483 90.2228 89.8844 90.3861C89.7838 90.057 89.7372 89.8542 89.6636 89.6587C85.7661 79.2706 81.871 68.8799 77.9489 58.5042C77.8042 58.1207 77.4264 57.7521 77.0634 57.5393C74.3113 55.9362 71.5347 54.3727 68.7655 52.7967C67.544 52.1016 66.3224 51.4089 64.9832 50.6469L64.9807 50.6493Z" fill="#3A9C6F"/>
<path d="M62.1352 26.4268C62.1475 34.8433 55.3752 41.7258 47.0552 41.7481C38.6788 41.7703 31.8697 34.9199 31.8574 26.4541C31.8452 18.0377 38.6175 11.1576 46.9375 11.1353C55.3188 11.113 62.123 17.961 62.1352 26.4268ZM59.3807 26.4887C59.4199 19.6408 53.9109 13.9754 47.1582 13.9185C40.2633 13.8591 34.6856 19.3835 34.6095 26.3452C34.5359 33.2154 40.0818 38.9203 46.8761 38.9649C53.7563 39.0094 59.3415 33.4356 59.3782 26.4887H59.3807Z" fill="#3A9C6F"/>
<path d="M56.6216 26.4075C56.6535 31.7612 52.3316 36.1648 47.0286 36.1796C41.7206 36.197 37.3987 31.8527 37.3693 26.4743C37.3399 21.1182 41.6593 16.7195 46.9623 16.7046C52.2752 16.6873 56.5897 21.0242 56.6216 26.4075ZM53.8695 26.4496C53.8769 22.6125 50.7986 19.4903 47.004 19.4854C43.2095 19.4804 40.1263 22.5927 40.1214 26.4298C40.1165 30.2619 43.1997 33.3915 46.9869 33.3964C50.7814 33.4014 53.8622 30.2916 53.8695 26.4496Z" fill="#3A9C6F"/>
</g>
<defs>
<clipPath id="clip0_233_15074">
<rect width="94" height="95" fill="white"/>
</clipPath>
</defs>
</svg>
